<svg xmlns="http://www.w3.org/2000/svg" version="1.1" x="0" y="0" viewBox="0 0 56 60" enable-background="new 0 0 56 60" xml:space="preserve"><path fill="#F5BD47" d="M40 15.7l-0.8-0.4c-3.4-2-7.3-3-11.2-3 -3.9 0-7.8 1-11.2 3l-0.8 0.4 -4.3-7.5 0.8-0.4C17.2 5 22.5 3.5 28 3.5c5.5 0 10.9 1.4 15.6 4.2l0.8 0.4L40 15.7zM28 10.5c4 0 7.9 1 11.3 2.8l2.6-4.5C37.7 6.5 32.9 5.3 28 5.3c-4.8 0-9.6 1.2-13.9 3.5l2.6 4.5C20.2 11.4 24 10.5 28 10.5z"/><path fill="#D18A00" d="M28 3.5c5.5 0 10.9 1.4 15.6 4.2l0.8 0.4 -2.4 0.6C37.7 6.5 32.9 5.3 28 5.3V3.5z"/><polygon fill="#D18A00" points="16.1 15.6 11.7 8.1 14.1 8.7 16.7 13.2 "/><polygon fill="#F5BD47" points="39.3 13.3 41.9 8.8 44.3 8.1 40 15.7 "/><path fill="#F5BD47" d="M19.4 5.7C19.8 5.6 21 5.1 23 4.8L23.3 6c0 0 0.7-0.1 1.4-0.2 0.6-0.1 1.2-0.1 1.2-0.1l0.5 6.5c-1.6 0.1-3.1 0.5-4.6 0.9L19.4 5.7z"/><path fill="#F5BD47" d="M19.4 5.7C19 5.8 17.8 6.2 16 7.1l0.5 1.2c0 0-0.6 0.3-1.3 0.7 -0.6 0.3-1 0.6-1 0.6l3.4 5.6c1.4-0.8 2.8-1.5 4.3-1.9L19.4 5.7z"/><path fill="#D18A00" d="M8.3 12.5c0.3-0.3 1.2-1.2 2.8-2.5l0.8 1c0 0 0.6-0.4 1.2-0.9 0.5-0.4 1-0.6 1-0.6l3.4 5.6c-1.4 0.9-2.6 1.8-3.7 2.9L8.3 12.5z"/><path fill="#F5BD47" d="M8.3 12.5c-0.3 0.3-1.2 1.2-2.5 2.8l1 0.8c0 0-0.4 0.6-0.9 1.2 -0.4 0.5-0.6 1-0.6 1l5.6 3.4c0.9-1.4 1.8-2.6 2.9-3.7L8.3 12.5z"/><path fill="#D18A00" d="M1.5 23.5c0.1-0.4 0.5-1.6 1.4-3.5l1.2 0.5c0 0 0.3-0.6 0.7-1.3 0.3-0.6 0.6-1 0.6-1l5.6 3.4c-0.8 1.4-1.5 2.8-2 4.3L1.5 23.5z"/><path fill="#F5BD47" d="M1.5 23.5C1.4 24 1 25.1 0.6 27.1l1.2 0.3c0 0-0.1 0.7-0.2 1.4 -0.1 0.6-0.1 1.2-0.1 1.2L8 30.6C8.2 29 8.5 27.5 9 26L1.5 23.5z"/><path fill="#D18A00" d="M0.5 36.5c-0.1-0.4-0.3-1.6-0.3-3.7l1.3-0.1c0 0 0-0.7 0-1.5 0-0.6 0.1-1.2 0.1-1.2l6.5 0.5c-0.1 1.6 0 3.2 0.2 4.7L0.5 36.5z"/><path fill="#F5BD47" d="M0.5 36.5c0.1 0.4 0.2 1.7 0.8 3.6l1.2-0.3c0 0 0.2 0.7 0.5 1.4 0.2 0.6 0.4 1.1 0.4 1.1l6.1-2.5c-0.6-1.5-1-3-1.2-4.6L0.5 36.5z"/><path fill="#D18A00" d="M5.5 48.5c-0.3-0.4-1-1.3-2-3.1l1.1-0.7c0 0-0.3-0.6-0.7-1.3 -0.3-0.6-0.5-1.1-0.5-1.1l6.1-2.5c0.6 1.5 1.4 2.8 2.3 4.1L5.5 48.5z"/><path fill="#F5BD47" d="M5.5 48.5c0.3 0.4 1 1.4 2.4 2.9l1-0.8c0 0 0.5 0.5 1 1 0.5 0.4 0.9 0.8 0.9 0.8l4.3-5c-1.2-1.1-2.3-2.2-3.2-3.5L5.5 48.5z"/><path fill="#D18A00" d="M15.3 57c-0.4-0.2-1.5-0.7-3.2-1.9l0.7-1.1c0 0-0.6-0.4-1.2-0.9 -0.5-0.4-0.9-0.7-0.9-0.7l4.3-5c1.2 1 2.5 1.9 3.9 2.6L15.3 57z"/><path fill="#F5BD47" d="M15.3 57c0.4 0.2 1.5 0.8 3.4 1.5l0.5-1.2c0 0 0.7 0.2 1.4 0.4 0.6 0.2 1.1 0.3 1.1 0.3l1.6-6.4c-1.6-0.4-3-1-4.4-1.7L15.3 57z"/><path fill="#D18A00" d="M28 60c-0.4 0-1.7 0-3.7-0.2l0.1-1.3c0 0-0.7-0.1-1.4-0.2 -0.6-0.1-1.1-0.2-1.1-0.2l1.5-6.4c1.6 0.4 3.1 0.5 4.7 0.5L28 60z"/><path fill="#F5BD47" d="M28 60c0.4 0 1.7 0 3.7-0.2l-0.1-1.3c0 0 0.7-0.1 1.4-0.2 0.6-0.1 1.1-0.2 1.1-0.2l-1.5-6.4c-1.6 0.4-3.1 0.5-4.7 0.5L28 60z"/><path fill="#D18A00" d="M40.6 57c-0.4 0.2-1.5 0.8-3.4 1.5l-0.5-1.2c0 0-0.7 0.2-1.4 0.4 -0.6 0.2-1.1 0.3-1.1 0.3l-1.5-6.4c1.6-0.4 3-0.9 4.4-1.7L40.6 57z"/><path fill="#F5BD47" d="M40.6 57c0.4-0.2 1.5-0.7 3.2-1.9L43.2 54c0 0 0.6-0.4 1.2-0.9 0.5-0.4 0.9-0.7 0.9-0.7l-4.2-5c-1.2 1-2.6 1.9-3.9 2.6L40.6 57z"/><path fill="#D18A00" d="M50.5 48.5c-0.3 0.4-1 1.4-2.4 2.9l-1-0.8c0 0-0.5 0.5-1 1 -0.5 0.4-0.9 0.8-0.9 0.8l-4.3-5c1.2-1.1 2.3-2.2 3.2-3.5L50.5 48.5z"/><path fill="#F5BD47" d="M50.5 48.5c0.3-0.4 1-1.3 2-3.1l-1.1-0.7c0 0 0.3-0.6 0.7-1.3 0.3-0.6 0.5-1.1 0.5-1.1l-6.1-2.5c-0.6 1.5-1.4 2.8-2.3 4.1L50.5 48.5z"/><path fill="#D18A00" d="M55.5 36.5c-0.1 0.4-0.2 1.7-0.8 3.6l-1.2-0.3c0 0-0.2 0.7-0.5 1.4 -0.2 0.6-0.4 1.1-0.4 1.1l-6.1-2.5c0.6-1.5 1-3 1.3-4.5L55.5 36.5z"/><path fill="#F5BD47" d="M55.5 36.5c0.1-0.4 0.3-1.6 0.4-3.7l-1.3-0.1c0 0 0-0.7 0-1.5 0-0.6-0.1-1.2-0.1-1.2L48 30.6c0.1 1.6 0 3.2-0.2 4.7L55.5 36.5z"/><path fill="#D18A00" d="M54.5 23.6c0.1 0.4 0.5 1.6 0.9 3.6l-1.2 0.3c0 0 0.1 0.7 0.2 1.5 0.1 0.6 0.1 1.2 0.1 1.2L48 30.6C47.8 29 47.5 27.5 47 26L54.5 23.6z"/><path fill="#F5BD47" d="M54.5 23.6c-0.1-0.4-0.5-1.6-1.4-3.5l-1.2 0.5c0 0-0.3-0.6-0.7-1.3 -0.3-0.6-0.6-1-0.6-1l-5.6 3.4c0.8 1.4 1.5 2.8 1.9 4.3L54.5 23.6z"/><path fill="#D18A00" d="M47.7 12.5c0.3 0.3 1.2 1.2 2.5 2.8l-1 0.8c0 0 0.4 0.6 0.9 1.2 0.4 0.5 0.6 1 0.6 1l-5.6 3.4c-0.9-1.4-1.8-2.6-2.9-3.7L47.7 12.5z"/><path fill="#F5BD47" d="M47.7 12.5c-0.3-0.3-1.2-1.2-2.8-2.5l-0.8 1c0 0-0.6-0.4-1.2-0.9 -0.5-0.4-1-0.6-1-0.6l-3.4 5.6c1.4 0.9 2.6 1.8 3.7 2.9L47.7 12.5z"/><path fill="#F5BD47" d="M36.6 5.7c0.4 0.1 1.6 0.5 3.5 1.4l-0.5 1.2c0 0 0.6 0.3 1.3 0.7 0.6 0.3 1 0.6 1 0.6l-3.4 5.6c-1.4-0.8-2.8-1.5-4.3-2L36.6 5.7z"/><path fill="#F5BD47" d="M36.6 5.7C36.2 5.6 35 5.2 33 4.8L32.7 6c0 0-0.7-0.1-1.4-0.2 -0.6-0.1-1.2-0.1-1.2-0.1l-0.5 6.5c1.6 0.1 3.1 0.5 4.6 1L36.6 5.7z"/><path fill="#D18A00" d="M34.3 0.6c0.4 0.1 1.6 0.4 3.6 1.1l-0.4 1.2c0 0 0.7 0.3 1.4 0.6C39.4 3.7 39.9 4 39.9 4l-2.9 5.9c-1.5-0.7-2.9-1.2-4.4-1.6L34.3 0.6z"/><path fill="#F5BD47" d="M34.3 0.6c-0.4-0.1-1.6-0.4-3.7-0.6l-0.2 1.3c0 0-0.7-0.1-1.5-0.1 -0.6 0-1.2 0-1.2 0l0 6.6c1.6 0 3.2 0.2 4.7 0.6L34.3 0.6z"/><path fill="#D18A00" d="M21.3 0.7C21.7 0.6 22.9 0.3 25 0l0.2 1.3c0 0 0.7-0.1 1.5-0.1 0.6 0 1.2 0 1.2 0l0 6.6c-1.6 0-3.2 0.2-4.7 0.6L21.3 0.7z"/><path fill="#F5BD47" d="M21.3 0.7c-0.4 0.1-1.6 0.4-3.6 1.1L18.1 3c0 0-0.7 0.3-1.3 0.6 -0.6 0.3-1.1 0.5-1.1 0.5l3 5.8c1.5-0.7 2.9-1.3 4.4-1.6L21.3 0.7z"/><circle fill="#231F20" cx="28" cy="32.2" r="23.4"/><path fill="#F5BD47" d="M28 10c-0.2 0.3-0.4 0.5-0.6 0.8 -0.3 0.5-0.9 0.5-1.4 0.5l-0.1-0.1c0.4-0.5 0.7-1.2 1.4-1.3C27.5 9.9 27.8 9.9 28 10z"/><path fill="#F5BD47" d="M30 10.1c-0.5 0.3-0.7 0.7-1.2 1l0-0.1c-0.3 0.1-0.8 0.2-1.1-0.1 0.5-0.4 0.7-1.1 1.4-1.1C29.4 9.9 29.7 9.9 30 10.1z"/><path fill="#F5BD47" d="M26.2 10.1c-0.1 0.2-0.4 0.4-0.5 0.6 -0.1 0.2-0.2 0.5-0.5 0.5l0.1 0c-0.3 0.2-0.8 0.4-1.2 0.1 0.3-0.6 0.7-1.2 1.3-1.4C25.6 10 26 9.9 26.2 10.1z"/><path fill="#F5BD47" d="M31.9 10.3c0 0.2-0.3 0.2-0.4 0.3 -0.4 0.4-0.9 0.8-1.4 0.7 -0.1 0-0.4-0.1-0.5-0.2 0-0.2 0.2-0.2 0.3-0.3 0.4-0.6 1-0.8 1.7-0.6C31.7 10.2 31.8 10.3 31.9 10.3z"/><path fill="#F5BD47" d="M24.2 10.4c-0.5 0.6-0.8 1.8-1.9 1.5 -0.4-0.1 0.2-0.4 0.1-0.6 0.1-0.5 0.6-0.8 1-0.9C23.8 10.4 24.1 10.3 24.2 10.4z"/><path fill="#F5BD47" d="M33.8 10.7c-0.7 0.4-1.4 1.3-2.3 0.7l-0.1-0.1c0.6-0.7 1.4-1 2.2-0.7C33.6 10.6 33.7 10.6 33.8 10.7z"/><path fill="#F5BD47" d="M22.3 10.8c-0.5 0.7-0.6 1.9-1.8 1.7 0-0.2 0.2-0.5 0.2-0.7 0.1-0.4 0.3-0.7 0.6-0.9C21.7 10.8 22 10.7 22.3 10.8z"/><path fill="#F5BD47" d="M35.7 11.3c-0.8 0.3-1.7 1.3-2.5 0.4v-0.1c0.6-0.5 1.3-0.9 2.1-0.6C35.4 11.1 35.6 11.2 35.7 11.3z"/><path fill="#F5BD47" d="M20.6 11.3c-0.4 0.4-0.2 1.2-0.7 1.5l0 0.1c-0.3 0.2-0.6 0.3-1 0.3 0.2-0.5 0.1-1.2 0.6-1.5C19.8 11.4 20.2 11.2 20.6 11.3z"/><path fill="#F5BD47" d="M37.5 12.1c-0.8 0.3-1.8 0.9-2.5 0.1 0.6-0.4 1.3-0.9 2-0.5C37.2 11.8 37.4 11.8 37.5 12.1z"/><path fill="#F5BD47" d="M18.7 12c-0.2 0.6-0.1 1.6-0.8 1.9C17.7 14 17.5 14 17.3 14c0.1-0.5 0-1.3 0.5-1.7C18.1 12.1 18.4 12 18.7 12z"/><path fill="#F5BD47" d="M39.2 12.8L39.2 12.8c-0.8 0.2-1.8 0.9-2.5 0 0-0.2 0.3-0.1 0.5-0.3 0.4-0.3 1-0.5 1.5-0.2C38.9 12.5 39.1 12.6 39.2 12.8z"/><path fill="#F5BD47" d="M17.1 12.9c-0.3 0.7 0.1 1.7-1 2 -0.1 0-0.2 0.1-0.4 0.1 0-0.8 0.1-1.7 0.9-2.1C16.8 12.9 16.9 12.9 17.1 12.9z"/><path fill="#F5BD47" d="M40.9 13.8L40.9 13.8c-0.9 0.2-2 0.9-2.6-0.3 0.7-0.3 1.6-0.7 2.3-0.1L40.9 13.8z"/><path fill="#F5BD47" d="M15.5 14c-0.2 0.6 0.1 1.8-0.8 2.2l-0.3 0.1c0.1-0.6-0.3-1.3 0.2-1.7C14.7 14.2 15.1 14 15.5 14z"/><path fill="#F5BD47" d="M42.4 14.9v0.1c-0.8 0.1-2 0.6-2.5-0.5 0-0.1 0.3-0.2 0.5-0.2C41.1 14.2 42.1 14.2 42.4 14.9z"/><path fill="#F5BD47" d="M13.2 17.5h-0.3c0.1-0.6-0.3-1.5 0.3-2 0.2-0.2 0.4-0.3 0.6-0.4C13.8 15.9 14.2 17.1 13.2 17.5z"/><path fill="#F5BD47" d="M43.5 15.8c0.2 0.2 0.3 0.4 0.3 0.6 -0.8-0.1-1.9 0.6-2.4-0.5l-0.1-0.2C42 15.5 42.9 15.2 43.5 15.8z"/><path fill="#F5BD47" d="M28.1 15.7c-0.3 0.3-0.4 0.8-0.9 0.9 -0.2 0-0.4 0.1-0.6-0.1 0.3-0.4 0.5-0.8 1-1C27.7 15.6 27.9 15.6 28.1 15.7z"/><path fill="#F5BD47" d="M26.6 15.8c-0.3 0.2-0.3 0.9-0.8 1 -0.2 0.1-0.5 0.1-0.6-0.1 0.2-0.4 0.4-0.9 0.9-1C26.3 15.7 26.5 15.6 26.6 15.8z"/><path fill="#F5BD47" d="M29.4 15.8L29.4 15.8c-0.5 0.5-0.7 1.1-1.5 0.9l-0.1-0.1c0.2-0.4 0.4-0.7 0.9-0.9C29 15.7 29.3 15.6 29.4 15.8z"/><path fill="#F5BD47" d="M30.9 16.1c-0.4 0.2-0.7 0.7-1.2 0.7 -0.1-0.1-0.4 0-0.5-0.2 0.3-0.2 0.5-0.6 0.9-0.7C30.4 15.9 30.7 15.8 30.9 16.1z"/><path fill="#F5BD47" d="M25.3 16c-0.3 0.4-0.4 1.1-1 1.1l-0.3 0c0.1-0.4 0.2-0.9 0.7-1.1C24.9 15.9 25 15.9 25.3 16z"/><path fill="#F5BD47" d="M32.3 16.3c0 0.2-0.3 0.2-0.4 0.3 -0.3 0.3-0.7 0.4-1 0.3 -0.1-0.1-0.2-0.1-0.3-0.2 0.3-0.2 0.5-0.5 0.8-0.6C31.7 16.1 32.1 16.1 32.3 16.3z"/><path fill="#F5BD47" d="M23.8 16.3c-0.3 0.4-0.2 1.1-0.9 1.3h-0.4c0.2-0.4 0.2-1 0.7-1.2C23.5 16.4 23.7 16.2 23.8 16.3z"/><path fill="#F5BD47" d="M12.2 18.7c-0.1 0.1-0.3 0.2-0.5 0.2 0-0.6-0.4-1.3 0-1.9 0.2-0.3 0.5-0.5 0.8-0.6C12.4 17.2 12.9 18.2 12.2 18.7z"/><path fill="#F5BD47" d="M33.6 16.7c-0.4 0.3-0.9 0.8-1.5 0.5 -0.1-0.1-0.3-0.1-0.2-0.3 0.4-0.2 0.8-0.7 1.4-0.5C33.4 16.6 33.5 16.6 33.6 16.7z"/><path fill="#F5BD47" d="M22.5 16.7c-0.3 0.5-0.1 1.3-0.8 1.4h-0.3C21.3 17.6 21.7 16.6 22.5 16.7z"/><path fill="#F5BD47" d="M44.7 17.1c0.2 0.2 0.3 0.4 0.3 0.7 -0.7-0.1-1.9 0.2-2.3-0.8v-0.2C43.4 16.8 44.3 16.6 44.7 17.1z"/><path fill="#F5BD47" d="M35 17.3c-0.4 0.1-0.8 0.6-1.3 0.4 -0.2-0.1-0.3-0.3-0.4-0.4 0.4-0.3 0.8-0.6 1.3-0.4C34.7 17 34.9 17.1 35 17.3z"/><path fill="#F5BD47" d="M21.2 17.3c0 0.5-0.1 1-0.5 1.4 -0.2 0.1-0.4 0.1-0.6 0.2C20.3 18.4 20.2 17.3 21.2 17.3z"/><path fill="#F5BD47" d="M36.2 18c-0.4 0.2-1.1 0.6-1.6 0.1 0-0.1-0.1-0.1-0.1-0.2 0.4-0.1 0.7-0.5 1.2-0.4C35.9 17.7 36.1 17.8 36.2 18z"/><path fill="#F5BD47" d="M11.3 18c-0.1 0.8 0.6 2-0.6 2.5h-0.1c0-0.5-0.3-1.1-0.1-1.6C10.6 18.5 10.8 18 11.3 18z"/><path fill="#F5BD47" d="M19.9 18c-0.2 0.6 0 1.6-0.9 1.6 0-0.5 0-1 0.3-1.4C19.5 18.1 19.7 18 19.9 18z"/><path fill="#F5BD47" d="M45.9 18.5c0.2 0.3 0.4 0.5 0.4 0.8 -0.8-0.1-2 0-2.2-1.1v-0.1C44.7 18.2 45.4 18.1 45.9 18.5z"/><path fill="#F5BD47" d="M37.4 18.6c0 0.1 0.1 0.1 0.1 0.2 -0.5 0-0.9 0.3-1.4 0.1l-0.3-0.4C36.2 18.3 36.9 18.2 37.4 18.6z"/><path fill="#F5BD47" d="M18.7 18.9c-0.1 0.6 0.1 1.4-0.6 1.5h-0.1c0-0.4-0.2-0.9 0.2-1.3C18.3 18.9 18.5 18.9 18.7 18.9z"/><path fill="#F5BD47" d="M38.4 19.4c0 0.1 0.2 0.2 0.2 0.3 -0.2 0.1-0.5 0.1-0.8 0.2 -0.3 0-0.8-0.1-0.9-0.5 0-0.2 0.3-0.1 0.4-0.2C37.6 19.1 38.1 19.1 38.4 19.4z"/><path fill="#F5BD47" d="M10 19.6c0 0.8 0.7 1.7-0.1 2.3C9.8 22 9.7 22 9.6 22c-0.1-0.5-0.5-1-0.3-1.6C9.5 20 9.6 19.6 10 19.6z"/><path fill="#F5BD47" d="M46.8 20c0.3 0.3 0.5 0.6 0.5 1 -0.5-0.2-1.4 0-1.8-0.5 -0.3-0.2-0.4-0.6-0.3-0.9C45.7 19.8 46.4 19.5 46.8 20z"/><path fill="#F5BD47" d="M17.5 21c-0.2 0.2-0.3 0.3-0.5 0.3 0-0.4-0.3-1.1 0.1-1.4l0.5-0.3C17.4 20.1 17.8 20.6 17.5 21z"/><path fill="#F5BD47" d="M39.4 20.3c0.1 0.1 0.1 0.3 0.2 0.4 -0.6-0.1-1.4 0.3-1.6-0.5C38.3 20 39 19.8 39.4 20.3z"/><path fill="#F5BD47" d="M16.5 20.7c-0.1 0.5 0.3 1.2-0.2 1.5 -0.1 0-0.2 0.2-0.3 0.1 -0.1-0.4-0.3-1 0-1.3C16.2 20.8 16.3 20.7 16.5 20.7z"/><path fill="#F5BD47" d="M40.5 21.4l0.1 0.2c-0.5 0-1.4 0.2-1.6-0.5V21C39.5 20.9 40.1 21 40.5 21.4z"/><path fill="#F5BD47" d="M9.1 23.4c-0.1 0-0.2 0.2-0.3 0.2 -0.4-0.6-0.7-1.4-0.2-2.1l0.4-0.3C9 21.9 9.8 22.6 9.1 23.4z"/><path fill="#F5BD47" d="M48.1 22.1c0 0.2 0.1 0.3 0.1 0.5 -0.4-0.1-0.9-0.3-1.3-0.3 -0.3-0.2-0.6-0.5-0.7-0.9l0.1-0.4C46.9 21.4 47.8 21.3 48.1 22.1z"/><path fill="#F5BD47" d="M15.6 21.8c0 0.5 0.3 0.9 0 1.4l-0.4 0.3c-0.1-0.4-0.4-0.8-0.1-1.2C15.2 22 15.4 21.8 15.6 21.8z"/><path fill="#F5BD47" d="M41.4 22.6v0.1c-0.6-0.1-1.4 0.1-1.5-0.6C40.4 21.9 41.1 21.9 41.4 22.6z"/><path fill="#F5BD47" d="M48.8 23.7c0.1 0.2 0.2 0.5 0.1 0.8 -0.3-0.1-0.4-0.3-0.7-0.3 -0.3 0-0.6-0.2-0.9-0.4 -0.2-0.3-0.3-0.7-0.3-1C47.7 23 48.5 23 48.8 23.7z"/><path fill="#F5BD47" d="M8.3 25.1l-0.3 0.2c-0.2-0.6-0.8-1.1-0.5-1.9 0.2-0.2 0.2-0.5 0.5-0.6C8.2 23.5 9.1 24.3 8.3 25.1z"/><path fill="#F5BD47" d="M14.8 24.4l-0.2 0.1c-0.2-0.3-0.5-0.8-0.2-1.3 0.1-0.2 0.2-0.4 0.4-0.4C14.7 23.3 15.3 23.9 14.8 24.4z"/><path fill="#F5BD47" d="M41.9 23.4c0.2 0.2 0.3 0.4 0.2 0.6 -0.5-0.3-1.2 0-1.4-0.7V23C41.1 23.1 41.6 23 41.9 23.4z"/><path fill="#F5BD47" d="M14.1 24.5c0.2 0.3 0.2 0.7 0 1 -0.1 0-0.1 0.3-0.3 0.2 -0.2-0.4-0.4-0.8-0.2-1.2 0.1-0.2 0.2-0.5 0.5-0.5L14.1 24.5z"/><path fill="#F5BD47" d="M42.8 24.8c0 0.1 0.1 0.2 0 0.4 -0.4-0.2-1.2-0.1-1.4-0.7l0.1-0.3C42 24.2 42.6 24.3 42.8 24.8z"/><path fill="#F5BD47" d="M49.6 25.9l-0.1 0.4c-0.2 0.1-0.4-0.3-0.6-0.3 -0.4-0.1-0.9-0.2-1.1-0.7 -0.1-0.3-0.2-0.6-0.1-0.9C48.5 24.7 49.5 25 49.6 25.9z"/><path fill="#F5BD47" d="M7.7 26.9L7.5 27c-0.4-0.5-1-1.1-0.7-1.9C7 24.9 7 24.6 7.3 24.5 7.5 25.3 8.4 26.1 7.7 26.9z"/><path fill="#F5BD47" d="M13.4 27c-0.1 0-0.1-0.3-0.2-0.4 -0.3-0.3-0.2-0.7-0.1-1l0.4-0.4C13.5 25.8 14 26.5 13.4 27z"/><path fill="#F5BD47" d="M43.4 26.1v0.3c-0.4-0.3-1.2-0.1-1.3-0.8v-0.3C42.6 25.4 43.2 25.6 43.4 26.1z"/><path fill="#F5BD47" d="M49.9 27.1c0.1 0.3 0.2 0.7 0 1 -0.6-0.5-1.7-0.6-1.6-1.6l0.1-0.4C48.9 26.4 49.5 26.5 49.9 27.1z"/><path fill="#F5BD47" d="M6.8 26.8c0.4 0.4 0.8 0.9 0.6 1.6 -0.1 0.1-0.1 0.3-0.3 0.4 -0.6-0.5-1.2-1.3-0.8-2.1 0.1-0.1 0.1-0.3 0.3-0.3L6.8 26.8z"/><path fill="#F5BD47" d="M13.1 28.2L13 28.3c-0.3-0.4-0.7-0.9-0.5-1.5l0.2-0.3C12.9 27.1 13.6 27.6 13.1 28.2z"/><path fill="#F5BD47" d="M43.8 27.3c0 0.2 0.1 0.4 0 0.5 -0.4-0.2-1-0.2-1.2-0.7v-0.5C43 26.7 43.6 26.8 43.8 27.3z"/><path fill="#F5BD47" d="M44.2 28.7v0.5c-0.2 0-0.3-0.2-0.5-0.3 -0.3-0.1-0.6-0.2-0.7-0.5v-0.6C43.4 28.2 44 28.1 44.2 28.7z"/><path fill="#F5BD47" d="M12.7 29.6L12.7 29.6c-0.3-0.3-0.7-0.5-0.7-1 0-0.2 0.1-0.5 0.3-0.7C12.6 28.4 13.2 29 12.7 29.6z"/><path fill="#F5BD47" d="M50.2 29c0.1 0.3 0.2 0.8-0.1 1.1 -0.5-0.4-1.3-0.6-1.5-1.3 0-0.3 0-0.5 0.1-0.8C49.2 28.3 49.9 28.4 50.2 29z"/><path fill="#F5BD47" d="M7.1 30.5c0 0.1-0.1 0.2-0.2 0.2 -0.4-0.5-1.2-0.9-1-1.7 0-0.3 0-0.5 0.3-0.7C6.6 29 7.6 29.5 7.1 30.5z"/><path fill="#F5BD47" d="M44.3 30v0.7c-0.1 0-0.1 0-0.1 0.1 -0.3-0.4-0.7-0.4-0.9-0.8 -0.1-0.2-0.1-0.5 0-0.6C43.7 29.4 44.2 29.5 44.3 30z"/><path fill="#F5BD47" d="M12.2 29.7c0.4 0.2 0.6 0.7 0.4 1.1 -0.1 0.1-0.1 0.1-0.1 0.2 -0.3-0.3-0.8-0.6-0.7-1.1 0-0.2 0-0.4 0.1-0.6C12.1 29.4 12.1 29.7 12.2 29.7z"/><path fill="#F5BD47" d="M50.3 31.1c0 0.3 0.1 0.8-0.2 0.9 -0.4-0.6-1.3-0.8-1.2-1.7l0.1-0.5C49.5 30.2 50.2 30.3 50.3 31.1z"/><path fill="#F5BD47" d="M7 32.2c-0.1 0.1-0.1 0.3-0.2 0.3 -0.4-0.4-1.1-0.8-1.1-1.5 -0.1-0.3 0.1-0.6 0.2-0.9C6.3 30.8 7.3 31.3 7 32.2z"/><path fill="#F5BD47" d="M44.4 31.3c0.1 0.2 0.1 0.6-0.1 0.7 -0.4-0.5-1.2-0.8-0.8-1.5C43.8 30.8 44.3 30.9 44.4 31.3z"/><path fill="#F5BD47" d="M12.5 32.3l-0.1 0.1c-0.3-0.3-0.8-0.6-0.8-1.1 0-0.2 0-0.4 0.2-0.5C12.2 31.3 12.8 31.6 12.5 32.3z"/><path fill="#F5BD47" d="M49.7 32.1c0.4 0.3 0.6 0.7 0.6 1.2 0 0.3-0.1 0.5-0.3 0.7 -0.4-0.6-1.5-1.1-1.1-2.1C49.2 31.3 49.4 32.1 49.7 32.1z"/><path fill="#F5BD47" d="M44.4 32.8c0 0.2 0 0.5-0.1 0.7 -0.4-0.4-1-0.8-0.8-1.5l0.1-0.1C43.9 32.1 44.3 32.4 44.4 32.8z"/><path fill="#F5BD47" d="M7 34.2c0 0.1-0.1 0.1-0.1 0.1 -0.5-0.3-1-0.6-1.2-1.1 -0.1-0.3-0.1-0.8 0.1-1.1C6.4 32.7 7.5 33.2 7 34.2z"/><path fill="#F5BD47" d="M12.6 33.4c0 0.2-0.1 0.2-0.1 0.4 -0.4-0.3-0.8-0.4-0.9-0.8 0-0.2-0.1-0.5 0.1-0.7C12 32.7 12.7 32.8 12.6 33.4z"/><path fill="#F5BD47" d="M44.3 34c0 0.3 0.1 0.7-0.2 0.8 -0.3-0.4-0.9-0.8-0.6-1.4l0.1-0.2C43.7 33.5 44.1 33.6 44.3 34z"/><path fill="#F5BD47" d="M50.1 35.5c-0.1 0.1-0.1 0.4-0.3 0.4 -0.4-0.7-1.3-1.2-0.9-2.1l0.2-0.3C49.5 34 50.4 34.6 50.1 35.5z"/><path fill="#F5BD47" d="M12.8 34.6l0 0.5c-0.4-0.2-1-0.3-1.1-0.9l0-0.5C12 34.1 12.7 34 12.8 34.6z"/><path fill="#F5BD47" d="M7.3 36l-0.1 0.1c-0.6-0.3-1.5-0.7-1.4-1.5 0-0.2 0-0.4 0.2-0.6C6.5 34.7 7.6 34.9 7.3 36z"/><path fill="#F5BD47" d="M44 36c-0.1 0.1-0.1 0.2-0.2 0.3 -0.2-0.5-0.9-0.8-0.6-1.4l0.2-0.3C43.8 34.9 44.1 35.4 44 36z"/><path fill="#F5BD47" d="M13 35.9l0 0.5c-0.4-0.2-0.9-0.2-1.1-0.7V35C12.2 35.4 12.9 35.3 13 35.9z"/><path fill="#F5BD47" d="M49.7 37.4c0 0.2-0.2 0.4-0.4 0.4 -0.3-0.7-1.1-1.1-0.7-2l0.3-0.4C49.4 35.8 50 36.5 49.7 37.4z"/><path fill="#F5BD47" d="M43.7 36.9c0 0.3-0.2 0.5-0.3 0.7 -0.1-0.4-0.7-0.8-0.5-1.4l0.2-0.3C43.3 36.1 43.7 36.5 43.7 36.9z"/><path fill="#F5BD47" d="M7.6 37.5l-0.1 0.4c-0.5-0.3-1.2-0.3-1.5-1 -0.1-0.3-0.3-0.7 0-1C6.6 36.4 7.7 36.6 7.6 37.5z"/><path fill="#F5BD47" d="M13.4 37.3v0.5c-0.5-0.1-1-0.3-1.2-0.8v-0.5C12.6 36.7 13.3 36.7 13.4 37.3z"/><path fill="#F5BD47" d="M43.1 38.5l-0.3 0.3c-0.1-0.4-0.6-0.8-0.4-1.4l0.2-0.3C42.9 37.5 43.3 37.9 43.1 38.5z"/><path fill="#F5BD47" d="M49.2 39.1c-0.1 0.2-0.2 0.5-0.5 0.5 0-0.7-0.9-1.1-0.6-1.8l0.4-0.6C48.9 37.7 49.5 38.2 49.2 39.1z"/><path fill="#F5BD47" d="M14 38.5v0.4c-0.5 0-0.9-0.2-1.2-0.6 0-0.2-0.2-0.4-0.1-0.5C13.1 38.1 13.8 37.9 14 38.5z"/><path fill="#F5BD47" d="M8.2 39.4c0 0.1 0 0.2-0.1 0.2 -0.6-0.2-1.6-0.4-1.7-1.2l0.1-0.6C7.1 38.3 8.3 38.4 8.2 39.4z"/><path fill="#F5BD47" d="M42.4 39.7c-0.1 0.2-0.2 0.4-0.4 0.4H42c0-0.5-0.6-0.9-0.2-1.4l0.3-0.3C42.3 38.8 42.6 39.2 42.4 39.7z"/><path fill="#F5BD47" d="M48.6 40.8c-0.2 0.2-0.2 0.6-0.6 0.6 0-0.7-0.7-1.2-0.5-1.9 0.2-0.2 0.2-0.5 0.5-0.6C48.2 39.5 48.8 40 48.6 40.8z"/><path fill="#F5BD47" d="M14.6 40v0.1c-0.5-0.1-1.1-0.1-1.3-0.6V39C13.7 39.3 14.6 39.2 14.6 40z"/><path fill="#F5BD47" d="M8.9 41c0 0.1 0 0.2 0 0.3 -0.7-0.2-1.7-0.3-1.9-1.2C6.9 40 6.9 39.8 7 39.6 7.7 40.1 8.8 40 8.9 41z"/><path fill="#F5BD47" d="M41.7 40.9c-0.1 0.2-0.2 0.5-0.5 0.5 0-0.6-0.5-1.3 0.2-1.7C41.7 39.9 41.9 40.4 41.7 40.9z"/><path fill="#F5BD47" d="M15.3 40.9c0 0.1 0.1 0.2 0.1 0.3 -0.4 0-0.9 0.1-1.2-0.2 -0.2-0.2-0.3-0.4-0.3-0.7C14.3 40.5 15 40.3 15.3 40.9z"/><path fill="#F5BD47" d="M47.8 42.4c-0.1 0.3-0.3 0.7-0.6 0.7 -0.1-0.8-0.9-1.5-0.2-2.3l0.3-0.3C47.5 41.1 48 41.7 47.8 42.4z"/><path fill="#F5BD47" d="M40.8 40.8c0.2 0.4 0.1 0.9 0.1 1.4 -0.1 0.2-0.3 0.3-0.5 0.4C40.4 42 40 41 40.8 40.8z"/><path fill="#F5BD47" d="M9.8 42.7V43c-0.8-0.1-1.7-0.1-2-1v-0.5C8.5 41.7 9.6 41.7 9.8 42.7z"/><path fill="#F5BD47" d="M16.1 42c0 0.1 0.1 0.2 0.1 0.3 -0.4 0-1 0.1-1.3-0.3 -0.2-0.1-0.2-0.3-0.2-0.5C15.1 41.6 15.8 41.3 16.1 42z"/><path fill="#F5BD47" d="M40.1 41.9c0.1 0.5 0.3 1.1-0.2 1.5 -0.2 0-0.2 0.2-0.4 0.1C39.5 42.9 39.2 42 40.1 41.9z"/><path fill="#F5BD47" d="M46.6 42.8c0.2 0.4 0.3 0.9 0.1 1.3 -0.2 0.3-0.3 0.6-0.7 0.7 -0.1-0.8-0.7-2 0.3-2.5C46.6 42.3 46.5 42.6 46.6 42.8z"/><path fill="#F5BD47" d="M16.9 42.9l0.2 0.4c-0.4 0.1-1.1 0.2-1.4-0.1 -0.1-0.2-0.3-0.3-0.2-0.5C16 42.8 16.5 42.4 16.9 42.9z"/><path fill="#F5BD47" d="M39 42.9c0.1 0.4 0.2 1-0.1 1.3 -0.1 0.2-0.3 0.2-0.5 0.3C38.4 43.9 38.3 43 39 42.9z"/><path fill="#F5BD47" d="M10.8 44.3v0.2c-0.8 0-1.7-0.1-2.1-0.9l0-0.4C9.4 43.5 10.6 43.2 10.8 44.3z"/><path fill="#F5BD47" d="M17.9 43.8c0.1 0.1 0.1 0.2 0.2 0.3 -0.4 0.1-1.1 0.4-1.5-0.1 -0.1-0.1-0.1-0.2-0.2-0.4C17 43.8 17.5 43.3 17.9 43.8z"/><path fill="#F5BD47" d="M38.1 43.8c0.1 0.5 0.1 1.3-0.5 1.5h-0.3c0.1-0.5-0.1-1.3 0.6-1.5H38.1z"/><path fill="#F5BD47" d="M45.5 43.9c0.1 0.6 0.5 1.4 0.1 2 -0.3 0.2-0.4 0.5-0.7 0.5 0-0.7-0.5-1.6 0.1-2.2C45.1 44 45.3 44 45.5 43.9z"/><path fill="#F5BD47" d="M19.1 44.9V45c-0.5 0.2-1.1 0.3-1.5-0.1l-0.2-0.3C18 44.5 18.8 44.2 19.1 44.9z"/><path fill="#F5BD47" d="M37 44.6c0 0.5-0.1 1.2-0.6 1.4l-0.3 0.1C36.2 45.5 36.2 44.7 37 44.6z"/><path fill="#F5BD47" d="M11.9 45.7V46c-0.8 0-1.7 0.1-2.1-0.7l-0.1-0.4C10.4 45 11.6 44.7 11.9 45.7z"/><path fill="#F5BD47" d="M20.4 45.6c-0.4 0.1-0.8 0.5-1.3 0.3 -0.2-0.1-0.4-0.2-0.5-0.4 0.5 0 0.9-0.6 1.5-0.2C20.2 45.4 20.3 45.5 20.4 45.6z"/><path fill="#F5BD47" d="M35.9 45.4c-0.1 0.4 0.1 0.9-0.4 1.1 -0.1 0.3-0.4 0.2-0.6 0.2C35 46.2 35.1 45.3 35.9 45.4z"/><path fill="#F5BD47" d="M44.3 45.4c0.1 0.6 0.3 1.2 0 1.8 -0.2 0.3-0.5 0.6-0.8 0.6C43.6 46.9 43.1 45.6 44.3 45.4z"/><path fill="#F5BD47" d="M21.6 46.3c-0.4 0.1-0.8 0.5-1.3 0.3 -0.2-0.1-0.4-0.2-0.5-0.4C20.4 46 21.2 45.6 21.6 46.3z"/><path fill="#F5BD47" d="M34.7 46c-0.1 0.4-0.1 0.9-0.6 1.2 -0.1 0.2-0.4 0.1-0.5 0.1C33.8 46.8 33.9 45.9 34.7 46z"/><path fill="#F5BD47" d="M13.1 47v0.2c-0.6 0-1.5 0.2-2-0.4 -0.2-0.2-0.3-0.4-0.3-0.6C11.7 46.4 12.8 46 13.1 47z"/><path fill="#F5BD47" d="M22.8 46.7c-0.1 0.2-0.5 0.3-0.7 0.5 -0.4 0.2-0.7 0-1-0.3v-0.1C21.6 46.6 22.4 46.1 22.8 46.7z"/><path fill="#F5BD47" d="M33.5 46.6c-0.2 0.4-0.2 0.9-0.7 1.1 -0.2 0.1-0.4 0.1-0.6 0 0.3-0.4 0.4-1.2 1.1-1.2C33.3 46.5 33.4 46.6 33.5 46.6z"/><path fill="#F5BD47" d="M24.1 47c-0.3 0.3-0.6 0.6-1 0.6 -0.2-0.1-0.5-0.1-0.7-0.3 0.4-0.2 0.9-0.8 1.5-0.5C24 47 24.1 47 24.1 47z"/><path fill="#F5BD47" d="M43.1 46.8c0 0.6 0.2 1.3-0.2 1.8 -0.2 0.3-0.5 0.4-0.8 0.5C42.1 48.3 42 47 43.1 46.8z"/><path fill="#F5BD47" d="M32.1 47c-0.1 0.4-0.3 1-0.8 1.1h-0.5v-0.2C31.1 47.5 31.3 46.7 32.1 47z"/><path fill="#F5BD47" d="M25.4 47.4L25.4 47.4c-0.3 0.4-0.8 0.8-1.3 0.6 -0.1 0-0.2-0.2-0.3-0.2 0.2-0.3 0.5-0.4 0.8-0.6C24.9 47.1 25.2 47.2 25.4 47.4z"/><path fill="#F5BD47" d="M30.8 47.3c-0.2 0.4-0.3 0.9-0.8 1 -0.2 0.1-0.5 0.1-0.7-0.1C29.7 47.8 30 46.9 30.8 47.3z"/><path fill="#F5BD47" d="M26.7 47.5c-0.2 0.3-0.4 0.7-0.8 0.8 -0.3 0-0.6 0.1-0.8-0.1v-0.1C25.6 47.7 26.1 47 26.7 47.5z"/><path fill="#F5BD47" d="M29.4 47.5c-0.2 0.4-0.4 0.8-0.8 0.9 -0.2 0.1-0.5 0-0.7-0.1 0.3-0.4 0.6-0.9 1.2-0.9C29.2 47.5 29.4 47.4 29.4 47.5z"/><path fill="#F5BD47" d="M28.1 47.6c-0.2 0.4-0.4 0.7-0.8 0.9 -0.2 0.1-0.5 0.1-0.7-0.1C26.9 47.9 27.3 47.2 28.1 47.6 28 47.5 28 47.6 28.1 47.6z"/><path fill="#F5BD47" d="M14.5 48.4L14.5 48.4c-0.6 0.2-1.5 0.4-2-0.1 -0.2-0.2-0.3-0.4-0.3-0.6C13 47.6 14.2 47.3 14.5 48.4z"/><path fill="#F5BD47" d="M41.7 48.1c0 0.5 0.1 1.3-0.3 1.7 -0.2 0.2-0.5 0.5-0.8 0.5 -0.1-0.6-0.2-1.4 0.3-1.8C41.2 48.2 41.5 48.1 41.7 48.1z"/><path fill="#F5BD47" d="M15.7 49.1l0.3 0.5c-0.5 0.2-1.4 0.5-2 0.1 -0.2-0.2-0.4-0.4-0.4-0.6C14.3 49.1 15.1 48.5 15.7 49.1z"/><path fill="#F5BD47" d="M40.5 49.1c0 0.8-0.1 1.6-0.8 2 -0.2 0.1-0.4 0.1-0.6 0.1C39.4 50.4 39.3 49 40.5 49.1z"/><path fill="#F5BD47" d="M17.6 50.5c0 0.2-0.3 0.1-0.5 0.3C16.8 51 16.4 51.1 16 51c-0.3-0.2-0.7-0.3-0.8-0.7C15.9 50.2 17 49.4 17.6 50.5z"/><path fill="#F5BD47" d="M38.9 50.1c-0.3 0.5 0 1.3-0.6 1.7 -0.3 0.2-0.6 0.5-1 0.3 0.3-0.7 0.3-1.9 1.4-1.9H38.9z"/><path fill="#F5BD47" d="M19.3 51.4c-0.6 0.3-1.5 0.8-2.2 0.3 -0.2-0.1-0.3-0.3-0.3-0.5C17.6 51.1 18.7 50.3 19.3 51.4z"/><path fill="#F5BD47" d="M37.3 51c-0.2 0.7-0.2 1.4-1 1.8 -0.2 0-0.4 0.1-0.7 0.1 0.1-0.4 0.3-0.9 0.4-1.3C36.3 51.1 36.8 50.8 37.3 51z"/><path fill="#F5BD47" d="M21 52c-0.6 0.3-1.1 1-1.9 0.6 -0.2-0.1-0.5-0.3-0.6-0.5C19.2 51.9 20.4 51 21 52z"/><path fill="#F5BD47" d="M35.5 51.7c-0.2 0.7-0.3 1.7-1.3 1.8l-0.5-0.1C34.1 52.7 34.3 51.4 35.5 51.7z"/><path fill="#F5BD47" d="M22.7 52.5c0.1 0.2-0.2 0.2-0.3 0.3 -0.4 0.5-1 0.7-1.6 0.6 -0.2-0.1-0.5-0.2-0.5-0.5C21 52.6 21.9 51.7 22.7 52.5z"/><path fill="#F5BD47" d="M33.8 52.3c-0.3 0.6-0.4 1.4-1.1 1.6 -0.3 0.1-0.6 0.1-0.9 0 0.6-0.5 0.4-1.6 1.4-1.6L33.8 52.3z"/><path fill="#F5BD47" d="M24.5 52.9c-0.4 0.4-0.9 1-1.6 0.9 -0.3 0-0.6-0.1-0.8-0.4 0.1-0.2 0.4-0.3 0.5-0.4 0.4-0.5 0.9-0.6 1.5-0.5C24.3 52.8 24.5 52.8 24.5 52.9z"/><path fill="#F5BD47" d="M32 52.8c-0.3 0.4-0.4 1.1-0.9 1.3 -0.3 0.1-0.8 0.3-1.1 0 0.5-0.6 0.9-1.9 2.1-1.5L32 52.8z"/><path fill="#F5BD47" d="M26.4 53.2c-0.5 0.2-0.6 0.9-1.1 0.9 -0.1 0.1-0.2 0.1-0.4 0.1 -0.4 0.1-0.6-0.1-0.9-0.3 0-0.2 0.2-0.2 0.3-0.3 0.4-0.3 0.7-0.8 1.1-0.8C25.8 52.9 26.2 52.9 26.4 53.2z"/><path fill="#F5BD47" d="M30.2 53c-0.3 0.6-0.8 1.4-1.6 1.4 -0.2-0.1-0.5 0-0.6-0.2C28.6 53.6 29.1 52.4 30.2 53L30.2 53z"/><path fill="#F5BD47" d="M28.3 53.2c-0.4 0.5-0.9 1.2-1.6 1.1 -0.2-0.1-0.5-0.1-0.7-0.3 0.7-0.5 1.2-1.7 2.3-1C28.3 53.1 28.3 53.2 28.3 53.2z"/><path fill="#F5BD47" d="M16.3 46.7"/><path fill="#FFFFFF" d="M20.1 14.4c0 0 0-0.1-0.2 0l0-0.1 0.9-0.5 0 0.1c-0.1 0.1-0.1 0.1-0.1 0.1l0.6 1.2c0.4 0.8 0 1.3-0.7 1.6 -0.7 0.3-1.3 0.4-1.7-0.4l-0.6-1.2c0 0 0-0.1-0.2 0l0-0.1 0.9-0.5 0 0.1C19 14.9 19 14.9 19 15l0.6 1.2c0.2 0.3 0.4 0.4 0.8 0.2 0.3-0.2 0.5-0.4 0.3-0.7L20.1 14.4z"/><path fill="#FFFFFF" d="M25 15.4L25 15.4c0.1-0.1 0.1-0.1 0.1-0.2l-0.3-1.8L24 13.5c-0.1 0-0.1 0-0.1 0.1l-0.1 0 -0.1-0.9 0.1 0c0 0.1 0.1 0.1 0.1 0.1l2.4-0.4c0.1 0 0.1 0 0.1-0.1l0.1 0 0.1 0.9 -0.1 0c0-0.1-0.1-0.1-0.1-0.1l-0.8 0.1 0.3 1.8c0 0 0 0.1 0.1 0.1l0 0.1L25 15.4z"/><path fill="#FFFFFF" d="M29.6 14.6c-0.2 0.3-0.2 0.4-0.2 0.4 0 0 0 0.1 0.1 0.1l0 0.1L28.6 15l0-0.1c0.1 0 0.1 0 0.1-0.1 0.1-0.1 1.1-2.1 1.1-2.2 0 0 0-0.1-0.1-0.1l0-0.1 1.3 0.2 0 0.1c-0.1 0-0.1 0-0.1 0.1 0 0 0.4 1.6 0.6 2.3 0 0.1 0.1 0.2 0.1 0.2l0 0.1 -1-0.1 0-0.1c0.1 0 0.1 0 0.1 0 0 0-0.1-0.4-0.1-0.5L29.6 14.6zM29.8 14.2l0.9 0.1 -0.3-1.2L29.8 14.2z"/><path fill="#FFFFFF" d="M36.6 17.2c0 0 0 0.1 0.1 0.1l0 0.1 -0.9-0.4 0-0.1c0.1 0 0.1 0 0.2 0l0.4-0.8 -1.1-0.6 -0.4 0.8c0 0 0 0.1 0.1 0.1l0 0.1 -0.9-0.4 0-0.1c0.1 0 0.1 0 0.2 0l1-2c0 0 0-0.1-0.1-0.1l0-0.1 0.9 0.4 0 0.1c-0.1 0-0.1 0-0.2 0L35.4 15l1.1 0.6 0.3-0.7c0 0 0-0.1-0.1-0.1l0-0.1 0.9 0.4 0 0.1c-0.1 0-0.1 0-0.2 0L36.6 17.2z"/><path fill="#FFFFFF" d="M10.6 27.8C10.7 27.8 10.7 27.8 10.6 27.8l0.1-0.1 -0.2 1.1c-0.1 0.6-0.6 0.8-1.1 0.7 -0.5-0.1-0.9-0.5-0.8-1.1l0.2-1.1 0 0c0 0.1 0 0.1 0 0.1L10.6 27.8zM9.1 28.1l-0.1 0.4C9 28.8 9.2 29 9.5 29.1c0.3 0.1 0.6 0 0.6-0.4l0.1-0.4L9.1 28.1z"/><path fill="#FFFFFF" d="M9 31.7L9 31.7c0.1 0 0.1-0.1 0.1-0.1l0-0.6 -0.3 0 0 1.1c0 0 0 0.1 0.1 0.1l0 0 -0.6 0 0 0c0.1 0 0.1 0 0.1-0.1l0.1-1.7 0 0c0 0.1 0 0.1 0.1 0.1l1.7 0.1c0 0 0.1 0 0.1-0.1l0 0 -0.1 1.7c0 0 0 0.1 0.1 0.1l0 0 -0.6 0 0 0c0.1 0 0.1 0 0.1-0.1l0-1.1 -0.3 0 0 0.6c0 0.1 0 0.1 0.1 0.1l0 0L9 31.7z"/><path fill="#FFFFFF" d="M8.5 33.7C8.4 33.7 8.4 33.8 8.5 33.7l-0.1 0.1 -0.1-0.7 0 0c0 0.1 0 0.1 0.1 0.1l1.7-0.2c0 0 0.1 0 0.1-0.1l0 0 0.1 1.2c0 0.4-0.2 0.7-0.6 0.7 -0.3 0-0.6-0.2-0.7-0.6l-0.1-0.6L8.5 33.7zM9.5 33.6l0 0.5c0 0.2 0.1 0.3 0.2 0.2 0.1 0 0.2-0.1 0.2-0.3l0-0.5L9.5 33.6z"/><path fill="#FFFFFF" d="M9.1 36.1c-0.3 0-0.3 0-0.4 0 0 0 0 0 0 0.1l0 0 -0.1-0.6 0 0c0 0 0 0.1 0.1 0.1 0.1 0 1.8 0.2 1.8 0.2 0 0 0 0 0-0.1l0 0 0.2 0.9 0 0c0 0 0-0.1-0.1 0 0 0-1 0.7-1.5 1 -0.1 0.1-0.1 0.1-0.1 0.1l0 0 -0.2-0.6 0 0c0 0 0 0.1 0.1 0.1 0 0 0.3-0.2 0.3-0.2L9.1 36.1zM9.4 36.2l0.1 0.6 0.8-0.5L9.4 36.2z"/><path fill="#FFFFFF" d="M9.7 39.2c0 0-0.1 0 0 0.1l0 0 -0.3-0.6 0 0c0 0.1 0.1 0.1 0.1 0.1l1.6-0.7c0 0 0.1 0 0-0.1l0 0 0.5 1.1c0.2 0.5 0.1 0.7-0.3 0.9 -0.3 0.1-0.6 0-0.7-0.2l-0.4 0.6c0 0 0 0.1 0 0.1l0 0 -0.3-0.6 0 0c0 0 0 0.1 0.1 0 0 0 0.4-0.5 0.4-0.6l-0.1-0.3L9.7 39.2zM10.6 38.8l0.2 0.5c0.1 0.2 0.2 0.2 0.3 0.2 0.1 0 0.2-0.1 0.1-0.3L11 38.6 10.6 38.8z"/><path fill="#FFFFFF" d="M10.8 41.7L10.8 41.7c0.1 0 0.1 0 0.1 0l1.2-0.7 -0.3-0.5c0 0 0 0-0.1 0l0 0 0.6-0.3 0 0c-0.1 0.1-0.1 0.1-0.1 0.1l0.8 1.4c0 0 0 0 0.1 0l0 0 -0.6 0.3 0 0c0.1-0.1 0.1-0.1 0.1-0.1l-0.3-0.5 -1.2 0.7c0 0 0 0 0 0.1l0 0L10.8 41.7z"/><path fill="#FFFFFF" d="M13 44.9L13 44.9c0.1 0 0.1 0 0.1 0l1.1-0.9 0 0 -1.5 0.4 0.8-1.4 0 0 -1.1 0.9c0 0 0 0 0 0.1l0 0L12 43.6l0 0c0.1 0.1 0.1 0.1 0.1 0l1.4-1.1c0 0 0 0 0-0.1l0 0 0.6 0.7 0 0c0 0-0.1 0-0.1 0 0 0-0.4 0.7-0.4 0.7 0.4-0.1 0.8-0.2 0.8-0.2 0 0 0-0.1 0-0.1l0 0 0.6 0.7 0 0c-0.1-0.1-0.1-0.1-0.1 0l-1.4 1.1c0 0 0 0 0 0.1l0 0L13 44.9z"/><path fill="#FFFFFF" d="M15.7 46.6L15.7 46.6c0-0.1 0-0.1 0-0.2L15.2 46l-0.2 0.3 0.8 0.7c0 0 0 0 0.1 0l0 0 -0.4 0.5 0 0c0-0.1 0-0.1 0-0.1l-1.2-1.1 0 0c0.1 0.1 0.1 0 0.1 0l1.2-1.3c0 0 0-0.1 0-0.1l0 0 1.2 1.1c0 0 0 0 0.1 0l0 0 -0.4 0.5 0 0c0-0.1 0.1-0.1 0-0.1l-0.8-0.7 -0.2 0.2 0.5 0.4c0 0 0.1 0 0.1 0l0 0L15.7 46.6z"/><path fill="#FFFFFF" d="M17.4 46.5c0 0 0-0.1 0-0.1l0 0 0.7 0.4 0 0c-0.1 0-0.1 0-0.1 0 0 0 0.1 0.9 0.1 1.3l0.5-0.8c0 0 0-0.1 0-0.1l0 0 0.5 0.3 0 0c-0.1 0-0.1 0-0.1 0L18 49c0 0 0 0.1 0 0.1l0 0 -0.5-0.4 0 0c0.1 0 0.1 0 0.1 0 0 0 0-0.1-0.2-1.5l-0.6 1c0 0 0 0.1 0 0.1l0 0L16.3 48l0 0c0.1 0 0.1 0 0.1 0L17.4 46.5z"/><path fill="#FFFFFF" d="M19.4 49.8L19.4 49.8c0.1 0 0.1 0 0.1-0.1l0.6-1.3 -0.5-0.2c0 0-0.1 0-0.1 0.1l0 0 0.3-0.6 0 0c0 0.1 0 0.1 0 0.1l1.5 0.7c0 0 0.1 0 0.1-0.1l0 0 -0.3 0.6 0 0c0-0.1 0-0.1 0-0.1l-0.5-0.2L20 50c0 0 0 0.1 0.1 0.1l0 0L19.4 49.8z"/><path fill="#FFFFFF" d="M25 50.6c-0.1 0.6-0.7 0.9-1.2 0.8 -0.6-0.1-0.9-0.6-0.8-1.2 0.1-0.6 0.7-0.9 1.2-0.8C24.7 49.5 25.1 50 25 50.6zM23.4 50.3c-0.1 0.3 0.1 0.6 0.4 0.7 0.3 0.1 0.6-0.1 0.7-0.4 0.1-0.3-0.1-0.6-0.4-0.7C23.8 49.8 23.5 49.9 23.4 50.3z"/><path fill="#FFFFFF" d="M27.7 50.4L27.7 50.4C27.7 50.3 27.6 50.3 27.7 50.4l-1.2-0.2 0 0.3 0.7 0.1c0 0 0.1 0 0.1-0.1l0 0 0 0.6 0 0c0-0.1 0-0.1-0.1-0.1L26.4 51l0 0.6c0 0 0 0.1 0.1 0.1l0 0 -0.7 0 0 0c0.1 0 0.1 0 0.1-0.1l0.1-1.7c0 0 0-0.1-0.1-0.1l0 0 1.7 0.1c0 0 0.1 0 0.1-0.1l0 0L27.7 50.4z"/><path fill="#FFFFFF" d="M30.6 51.5c0 0 0 0.1 0.1 0.1l0 0 -0.7 0.1 0 0c0.1 0 0.1 0 0.1-0.1l-0.3-1.7c0 0 0-0.1-0.1-0.1l0 0 1.2-0.2c0.4-0.1 0.7 0.2 0.7 0.5 0 0.3-0.1 0.6-0.5 0.7l-0.6 0.1L30.6 51.5zM30.5 50.5l0.5-0.1c0.2 0 0.3-0.1 0.2-0.3 0-0.1-0.1-0.2-0.3-0.2l-0.5 0.1L30.5 50.5z"/><path fill="#FFFFFF" d="M33.7 49.1c0 0 0-0.1-0.1 0l0 0 0.7-0.2 0 0c-0.1 0-0.1 0.1-0.1 0.1l0.3 1c0.2 0.6-0.1 1-0.6 1.1 -0.5 0.2-0.9 0.1-1.1-0.6l-0.3-1c0 0 0-0.1-0.1 0l0 0 0.7-0.2 0 0c-0.1 0-0.1 0.1-0.1 0.1l0.3 1c0.1 0.3 0.3 0.3 0.5 0.3 0.3-0.1 0.4-0.2 0.3-0.5L33.7 49.1z"/><path fill="#FFFFFF" d="M35.1 48.5c0 0 0 0-0.1 0l0 0 1.1-0.6c0.3-0.2 0.6-0.1 0.8 0.2 0.1 0.2 0 0.4-0.1 0.5l0 0c0.2 0 0.4 0 0.6 0.3 0.1 0.3 0.1 0.6-0.4 0.8l-1.2 0.6 0 0c0.1 0 0.1-0.1 0.1-0.1L35.1 48.5zM35.9 48.9l0.4-0.2c0.3-0.1 0.3-0.2 0.2-0.3 -0.1-0.1-0.1-0.1-0.4 0l-0.4 0.2L35.9 48.9zM36.2 49.6l0.5-0.3c0.2-0.1 0.3-0.2 0.2-0.3 -0.1-0.1-0.2-0.2-0.4-0.1L36 49.2 36.2 49.6z"/><path fill="#FFFFFF" d="M38.7 48.1l0.9-0.7c0 0 0 0 0-0.1l0 0 0.4 0.5 0 0c-0.1-0.1-0.1-0.1-0.1 0l-1.4 1 0 0c0.1-0.1 0.1-0.1 0-0.1l-1-1.4c0 0 0 0-0.1 0l0 0 0.6-0.4 0 0c-0.1 0.1-0.1 0.1 0 0.1L38.7 48.1z"/><path fill="#FFFFFF" d="M40.8 47.1L40.8 47.1c0-0.1 0-0.1 0-0.1l-1.1-1.3c0 0 0 0-0.1 0l0 0 0.5-0.5 0 0c-0.1 0.1 0 0.1 0 0.1l1.1 1.3c0 0 0 0 0.1 0l0 0L40.8 47.1z"/><path fill="#FFFFFF" d="M42.3 43.9L42.3 43.9C42.2 43.9 42.2 43.9 42.3 43.9c-0.1-0.1-0.4 0-0.6 0.3 -0.2 0.2-0.3 0.6 0 0.8 0.3 0.3 0.6 0.1 0.8-0.1 0.1-0.1 0.3-0.5 0.2-0.6 0 0 0 0-0.1 0l0 0 0.7 0.1 0 0c0 0 0 0-0.1 0 0 0-0.1 0.4-0.4 0.8 -0.4 0.4-1 0.6-1.5 0.2 -0.5-0.4-0.4-1.1 0-1.5 0.2-0.2 0.3-0.3 0.5-0.4 0.1-0.1 0.2-0.1 0.2-0.1 0 0 0 0 0-0.1l0 0L42.3 43.9z"/><path fill="#FFFFFF" d="M44.2 41.9L44.2 41.9C44.3 41.9 44.3 41.9 44.2 41.9c0.2 0.1 0.5-0.2 0.7-0.5 0.2-0.3 0.2-0.5 0-0.5 -0.2-0.1-0.6 1.2-1.3 0.9 -0.3-0.2-0.4-0.6-0.2-1 0.2-0.4 0.5-0.6 0.6-0.7 0 0 0-0.1 0-0.1l0 0 0.3 0.5 0 0 0 0c-0.1 0-0.4 0.2-0.5 0.5 -0.1 0.3-0.1 0.4 0 0.4 0.3 0.2 0.6-1.3 1.4-0.8 0.3 0.2 0.5 0.5 0.1 1.2 -0.3 0.5-0.5 0.6-0.6 0.7 0 0 0 0.1 0 0.1l0 0L44.2 41.9z"/><path fill="#FFFFFF" d="M45.9 39.3c0.2 0.2 0.3 0.2 0.3 0.2 0 0 0 0 0.1 0l0 0L46.1 40l0 0c0 0 0-0.1 0-0.1 -0.1-0.1-1.4-1.2-1.4-1.2 0 0 0 0-0.1 0.1l0 0 0.3-0.8 0 0c0 0 0 0.1 0 0.1 0 0 1.2 0 1.8 0 0.1 0 0.1 0 0.1 0l0 0 -0.2 0.6 0 0c0 0 0-0.1 0-0.1 0 0-0.3 0-0.4 0L45.9 39.3zM45.7 39.1l0.2-0.6 -0.9 0L45.7 39.1z"/><path fill="#FFFFFF" d="M46.1 35L46.1 35C46 35 46 35 46 35.1l-0.2 1.1 0.3 0.1 0.2-0.7c0 0 0-0.1-0.1-0.1l0 0 0.6 0.1 0 0c-0.1 0-0.1 0-0.1 0l-0.2 0.7 0.6 0.1c0 0 0.1 0 0.1-0.1l0 0 -0.1 0.7 0 0c0-0.1 0-0.1 0-0.1l-1.7-0.4c0 0-0.1 0-0.1 0.1l0 0 0.4-1.7c0 0 0-0.1-0.1-0.1l0 0L46.1 35z"/><path fill="#FFFFFF" d="M47 32.9L47 32.9c-0.1 0-0.1 0.1-0.1 0.1l0 0.6 0.3 0 0.1-1.1c0 0 0-0.1-0.1-0.1l0 0 0.6 0 0 0c-0.1 0-0.1 0-0.1 0.1l-0.1 1.7 0 0c0-0.1 0-0.1-0.1-0.1l-1.7-0.1c0 0-0.1 0-0.1 0.1l0 0 0.1-1.7c0 0 0-0.1-0.1-0.1l0 0 0.6 0 0 0c-0.1 0-0.1 0-0.1 0.1l-0.1 1.1 0.3 0 0-0.6c0-0.1 0-0.1-0.1-0.1l0 0L47 32.9z"/><path fill="#FFFFFF" d="M47.7 31.1L47.7 31.1c-0.1-0.1-0.1-0.1-0.1-0.1l-1.4 0.1 0 0.6c0 0 0 0 0.1 0.1l0 0 -0.7 0 0 0c0.1 0 0.1 0 0.1-0.1l-0.1-1.7c0 0 0 0-0.1-0.1l0 0 0.7 0 0 0c-0.1 0-0.1 0-0.1 0.1l0 0.6 1.4-0.1c0 0 0.1 0 0.1-0.1l0 0L47.7 31.1z"/><path fill="#FFFFFF" d="M45.3 28.2l-0.1-0.6 0 0c0 0 0 0 0.1 0.1l1.1 0.4 0.7-0.1c0 0 0.1 0 0-0.1l0 0 0.1 0.7 0 0c0-0.1-0.1-0.1-0.1-0.1l-0.6 0.1 -0.9 0.8c-0.1 0.1-0.1 0.1-0.1 0.1l0 0 -0.1-0.7 0 0c0 0 0 0.1 0.1 0.1 0 0 0.4-0.3 0.5-0.5C46 28.3 45.4 28.1 45.3 28.2 45.4 28.1 45.4 28.1 45.3 28.2L45.3 28.2z"/><path fill="#231F20" d="M28 11.3c4.2 0 8.2 1.1 11.5 3.1l3.4-6c-4.4-2.6-9.5-4-15-4 -5.4 0-10.5 1.4-14.9 4l3.4 6C19.9 12.4 23.8 11.3 28 11.3z"/><path fill="#FFFFFF" d="M39.7 15l-0.4-0.2c-3.4-2-7.4-3-11.3-3 -4 0-7.9 1-11.3 3l-0.4 0.2 -3.8-6.7 0.4-0.2c4.6-2.6 9.8-4 15.1-4 5.3 0 10.6 1.4 15.2 4.1l0.4 0.2L39.7 15zM28 10.9c4 0 7.9 1 11.4 3l3-5.2C38 6.2 33 4.9 28 4.9c-5 0-10 1.3-14.3 3.7l3 5.2C20.1 11.9 24 10.9 28 10.9z"/><path fill="#FFFFFF" d="M18.3 7.7L20.6 7c1.3-0.4 2.1 0.2 2.4 1.4 0.3 1.1-0.1 2-1.2 2.4l-2.4 0.7L18.3 7.7zM20.1 10.4l1.1-0.3c0.7-0.2 0.9-0.7 0.6-1.5 -0.2-0.7-0.6-1-1.4-0.8l-1 0.3L20.1 10.4z"/><path fill="#FFFFFF" d="M26.1 6.1l2.6 0c1.1 0 1.4 0.7 1.4 1.2 0 0.8-0.4 1.3-1.3 1.3l-1.6 0 0 1.4 -1.1 0L26.1 6.1zM27.1 7.9l1.1 0c0.3 0 0.7 0 0.7-0.5 0-0.5-0.3-0.6-0.6-0.6l-1.2 0L27.1 7.9z"/><path fill="#FFFFFF" d="M35.8 8.4c0.1-0.5-0.4-0.7-0.8-0.8 -0.4-0.1-0.7 0-0.8 0.3 -0.1 0.2 0.1 0.4 0.3 0.5l1.2 0.6c0.7 0.3 1.1 0.7 0.9 1.4 -0.2 0.7-0.8 1.1-2.3 0.7 -0.9-0.2-2.1-0.7-1.8-1.9l1.1 0.3c-0.1 0.5 0.4 0.7 0.8 0.9 0.5 0.1 0.8 0.1 0.9-0.2 0.1-0.3-0.1-0.4-0.5-0.6L34.1 9c-0.6-0.3-1.2-0.6-1-1.4 0.2-0.8 1-1 2.2-0.7 0.8 0.2 1.9 0.7 1.7 1.7L35.8 8.4z"/><polygon fill-rule="evenodd" clip-rule="evenodd" fill="#FFFFFF" points="13 20.3 13.4 19.4 13.8 20.3 14.7 20.2 14.2 20.9 14.7 21.7 13.8 21.6 13.4 22.4 13 21.6 12.1 21.7 12.6 20.9 12.1 20.2 "/><polygon fill-rule="evenodd" clip-rule="evenodd" fill="#FFFFFF" points="42.7 20.3 43.1 19.4 43.5 20.3 44.4 20.2 43.8 20.9 44.4 21.7 43.5 21.6 43.1 22.4 42.7 21.6 41.8 21.7 42.3 20.9 41.8 20.2 "/><path fill="#231F20" d="M25.1 26.8c-0.2 0-0.1-0.1-0.1-0.2 0.1-0.1 0.2-0.2 0.4-0.2 0.2 0 0.4-0.2 0.2-0.3 -0.1-0.1-1-0.7-1.2-0.8 -0.2 0-0.3-0.1-0.4 0 -0.1 0.1-0.2 0.4-0.3 0.4 -0.1 0-0.8-0.3-0.6-1.1 -0.1 0.1-0.2 0.2-0.4 0.2 -0.1 0-0.4 0.1-0.6 0 -0.2-0.1-0.7 0.7-1.4 0.7 0 0-0.6 0.8-0.8 0.6 0 0-0.4 0.7-0.6 0.7 -0.2 0-0.3-0.2-0.2-0.3 0 0-0.6 0.5-0.6 0.6 0 0.1-0.4 1.4-1 1.6 0 0.2-0.4 1.5-0.9 1.7 -0.1 0.2-0.6 1.5-1 1.5 -0.1-0.1-0.2-1.5-0.1-1.9 0.1-0.4-0.1-6.1 7.1-10 0.8-0.4 3-1.5 3.8-0.7 0.2 0.2 0.5 0.9 0.4 1.5h0.8 0.8c-0.1-0.3-0.5-2.3 2.2-1.8 7.1 1.9 9.4 7.3 9.5 11.3 0.1 0.2-0.1 1-0.1 1 -0.1-0.2-0.8-0.7-1.1-1.5 -0.1-0.1-0.8-0.5-1-1.5 -0.2-0.1-0.8-0.6-0.9-0.8 -0.1-0.2-0.7-0.9-0.7-0.9s-0.7-0.4-0.9-0.7c-0.3 0.1-0.5-0.1-0.8-0.4 -0.1 0.1-0.6-0.3-0.7-0.5 -0.2 0-0.6-0.2-0.7-0.4 -0.1 0-0.7-0.1-0.9-0.2 -0.1-0.1-0.8-0.3-0.9-0.4 -0.1 0.3-0.8 1.2-1.1 1.5 -0.1 0.2-0.3 0.4-0.2 0.6 0 0 0.5 0.2 0.6 0.4h-2c-0.1-0.1-0.2 0-0.3-0.1 -0.1 0-1.1 0-1.1 0 -0.1 0-0.4 0.1-0.4 0.1L25.1 26.8z"/><path fill="#F5BD47" d="M23.8 25.7c-0.1-0.1-0.7-0.7-0.2-1.1 0.1-0.1 0.4-0.3 1-0.2 0.1 0 0.4 0.1 0.4 0.3 0.1 0 0.1 0 0.1 0 0 0 0-0.1 0-0.1s0.3 0.1 0.4 0.2c0.1 0.1 0.3 0.4 0.4 0.5 0.1 0.1 0.2 0.2 0.1 0.3 -0.1 0-0.4 0.1-0.4 0.2 0 0-1.1-0.6-1.2-0.7 0 0 0 0 0.2 0 0.1 0 1 0.3 1 0.3 -0.1-0.1-1-0.7-1.4-0.5C23.9 25 23.8 25.4 23.8 25.7"/><path fill="#FFFFFF" d="M24.6 24.2c0-0.2 0.2-0.5 0.8-0.5 0.5 0 1.6 0.1 1.8 0.1 0.2 0 0.4-0.3 0.5-0.4 0 0 0 0.2 0.1 0.2 0.1 0 0.2-0.1 0.2-0.2 0-0.1 0.1-0.7 0.5-0.7 0.2 0 0.2 0.1 0.1 0.2 0 0.1-0.3 0.6-0.6 0.7 0.1 0 0.4 0 0.5-0.2 -0.1 0.2-0.2 0.5 0 0.6 0.1-0.1 0.5-0.2 0.7-0.2 0 0.1-0.1 0.4-0.3 0.4 -0.1 0-0.4 0-0.4 0 0 0 0.1 0.3 0.4 0.4 -0.1 0.2-0.3 0.5-1.2 0.5 0.4 0.2 1 0.2 1.2 0.2 0.2 0-0.4 0.4-1.6 0.4 0.3 0.1 1 0.2 1.1 0.2 0 0.1-0.7 0.4-1.7 0.2 0.3 0.1 1.1 0.4 1.3 0.4 -0.2 0-1.1 0.1-1.5-0.1 -0.5-0.2-0.9-0.6-0.9-0.6 0.1 0 0.3-0.1 0.4-0.1 0.1 0 0.1-0.2 0.1-0.3 -0.1-0.1-0.4-0.4-0.4-0.5 0-0.1-0.3-0.4-0.6-0.4C25.1 24.5 24.7 24.2 24.6 24.2"/><path fill="#231F20" d="M26.9 24.2c-0.1 0.1-0.3 0.1-0.6 0 -0.3-0.1-0.7-0.1-0.8 0 -0.1 0-0.1 0.2 0 0.2 0.1 0 0.2 0 0.2 0 0.1-0.1 0.1-0.1 0.2-0.1 0 0.1 0 0.3 0.1 0.3 0.1 0 0.2-0.1 0.2-0.2 0.1 0.1 0.4 0.1 0.5 0.1C26.8 24.4 26.9 24.3 26.9 24.2"/><path fill="#F5BD47" d="M17.2 25.5c-0.7 1.1-1.6 4.2-1.5 5.6 0 0.2 0 0.6 0.1 0.6 0.1 0 0.5-0.5 0.6-1 0.1-2.2 0.6-3.7 1-4.6L17.2 25.5z"/><path fill="#F5BD47" d="M17.6 26.1c-0.2 0.3-0.8 2-1 3.4 0 0.3 0 0.7 0.2 0.6 0.1-0.1 0.4-0.2 0.6-1.4 0.2-1.2 0.5-2.3 0.6-2.4L17.6 26.1z"/><path fill="#F5BD47" d="M17.9 26.5c-0.1 0.7-0.3 1.6-0.3 2.2 0.2 0 0.8-0.4 1-2.2L17.9 26.5z"/><path fill="#F5BD47" d="M18.9 25.3l0.6 0c0 0 0 0.7-0.2 1.2l-0.4-0.3L18.9 25.3z"/><path fill="#F5BD47" d="M19.7 25.2l0.6-0.5c0 0.1-0.3 1.6-0.8 1.9l-0.1-0.1C19.4 26.5 19.6 26.2 19.7 25.2"/><path fill="#F5BD47" d="M20.2 26.1c0.2-0.1 0.8-0.9 0.7-1.7 -0.1 0.1-0.5 0.4-0.5 0.4C20.5 24.8 20.4 25.9 20.2 26.1"/><path fill="#F5BD47" d="M20.9 25.6c0.4-0.3 0.8-1 0.8-1.8L21.3 24C21.3 24.4 21.1 25.4 20.9 25.6"/><path fill="#F5BD47" d="M21.4 25.4c0.5-0.3 0.9-1.1 1.2-1.9 -0.1 0-0.5 0.1-0.7 0.4C21.9 24.1 21.8 24.7 21.4 25.4"/><path fill="#F5BD47" d="M23.3 23.4c-0.1 0.1-0.5 0-0.5 0l-0.5 1.2c-0.1 0.2-0.1 0.3 0 0.3 0.1 0 0.3-0.2 0.3-0.2C22.7 24.7 23.3 23.4 23.3 23.4"/><path fill="#F5BD47" d="M23.4 23.5c0 0.1 0.2 0.3 0.5 0 -0.1 0.1-0.4 0.7-0.5 0.9 -0.1 0.2-0.2 0.3-0.3 0.3 -0.1 0-0.1-0.3 0-0.4C23.2 24 23.4 23.5 23.4 23.5"/><path fill="#F5BD47" d="M24.3 23.3c0.1 0.1 0.2 0.2 0.4 0.2 -0.1 0.2-0.5 0.9-0.8 0.8 -0.1 0 0-0.5 0.1-0.6C24.1 23.5 24.3 23.3 24.3 23.3"/><path fill="#F5BD47" d="M18.9 23.1l0.2 0.3c-0.1 0.1-0.7 1.1-0.8 1.2 -0.1 0.2-0.2 0.3-0.4 0.3 -0.2 0-0.1-0.3-0.1-0.4C17.9 24.3 18.7 23.3 18.9 23.1"/><path fill="#F5BD47" d="M19.8 23.1c-0.5 0.2-1.6 1.7-1.1 2 0.2 0 0.3-0.1 0.5-0.7C19.4 23.7 19.7 23.2 19.8 23.1"/><path fill="#F5BD47" d="M20.6 23.1c-0.2 0-0.5 0.1-0.7 0.4 -0.1 0.2-0.8 1.4-0.5 1.5 0.1 0 0.4-0.3 0.4-0.5C19.9 24.4 20.6 23.1 20.6 23.1"/><path fill="#F5BD47" d="M21.2 23c-0.5 0-0.9 0.5-0.9 1.4C20.6 24.3 21.2 23.7 21.2 23"/><path fill="#F5BD47" d="M22.2 22.5c-0.4 0.1-0.8 0.4-0.8 1.1C21.7 23.5 22.1 23 22.2 22.5"/><path fill="#F5BD47" d="M22.1 23.2c0.1-0.3 0.3-1 0.6-0.7C22.8 22.6 22.8 23.1 22.1 23.2"/><path fill="#F5BD47" d="M23.8 21.9c-0.4 0.1-0.9 0.6-0.8 1.2C23.4 22.9 23.8 22.6 23.8 21.9"/><path fill="#F5BD47" d="M24.5 22.1c-0.3 0.1-0.8 0.2-0.9 1.1C24.2 23 24.4 22.6 24.5 22.1"/><path fill="#F5BD47" d="M25.3 22.1c-0.5 0.1-0.7 0.4-0.8 0.9C25 23 25.2 22.8 25.3 22.1"/><path fill="#F5BD47" d="M25.6 22.7c-0.2 0.1-0.5 0.3-0.5 0.7C25.3 23.4 25.7 23.5 25.6 22.7"/><path fill="#F5BD47" d="M25.7 23.1l0 0.4C26 23.5 26 23.1 25.7 23.1"/><path fill="#F5BD47" d="M26.1 22.6c-0.1 0.2-0.1 0.3 0 0.5C26.3 23 26.3 22.8 26.1 22.6"/><path fill="#F5BD47" d="M26.8 23.5c-0.2-0.1-0.4-0.2-0.5 0C26.4 23.5 26.7 23.6 26.8 23.5"/><path fill="#F5BD47" d="M27 22.5c-0.3 0.1-0.4 0.3-0.4 0.6C26.9 23 27.1 22.7 27 22.5"/><path fill="#F5BD47" d="M27.4 23c-0.2 0.1-0.3 0.2-0.3 0.4C27.3 23.4 27.6 23.2 27.4 23"/><path fill="#F5BD47" d="M27.7 22.2c-0.2 0.1-0.4 0.2-0.3 0.7C27.5 22.8 27.8 22.6 27.7 22.2"/><path fill="#F5BD47" d="M28.2 22.5c-0.1 0-0.4 0.1-0.3 0.5C28 22.9 28.2 22.7 28.2 22.5"/><path fill="#F5BD47" d="M27.6 21.1c-0.2 0.1-0.4 0.3 0 0.5C27.8 21.6 27.8 21.2 27.6 21.1"/><path fill="#F5BD47" d="M27.2 21.3c-0.3 0.1-0.4 0.3-0.4 0.5C27 21.7 27.2 21.6 27.2 21.3"/><path fill="#F5BD47" d="M27.5 21.8c-0.3 0-0.5 0.1-0.4 0.6C27.3 22.3 27.5 22.1 27.5 21.8"/><path fill="#F5BD47" d="M25.7 21.2c-0.6 0-0.6 0.4-0.7 0.6C25.3 21.8 25.5 21.5 25.7 21.2"/><path fill="#F5BD47" d="M25.6 20.5c-0.3 0-0.5 0.2-0.5 0.6C25.4 21 25.7 20.9 25.6 20.5"/><path fill="#F5BD47" d="M25 20.3c-0.5 0-0.9 0.1-0.8 0.7C24.6 21.1 25 21 25 20.3"/><path fill="#F5BD47" d="M24.7 21.3c-0.2 0.1-0.6 0.1-0.6 0.1 -0.1 0.2-0.1 0.5 0.2 0.4C24.5 21.8 24.7 21.5 24.7 21.3"/><path fill="#F5BD47" d="M24 20.5c-0.7 0-1 0.4-1.1 0.8C23.2 21.3 23.8 21.1 24 20.5"/><path fill="#F5BD47" d="M23.7 21.4c-0.3 0.2-0.7 0.2-0.8 0.2 -0.1 0.1-0.3 0.5-0.1 0.5C23 22.1 23.4 21.7 23.7 21.4"/><path fill="#F5BD47" d="M22.7 21.1c-0.3 0-0.8 0.2-0.9 0.7C22.1 21.7 22.3 21.3 22.7 21.1"/><path fill="#F5BD47" d="M21.7 22c0.1 0.1 0.3 0.1 0.4 0.1 -0.1 0.1-0.7 0.6-0.8 0.5C21.2 22.5 21.7 22 21.7 22"/><path fill="#F5BD47" d="M21.3 22c-0.4 0.1-0.8 0.3-0.8 0.8C20.6 22.6 21 22.1 21.3 22"/><path fill="#F5BD47" d="M25.9 22.3c-0.1 0.1-0.1 0.2-0.3 0.2 -0.1-0.1-0.1-0.3 0-0.5 0.1-0.2 0.5-1.7-0.3-1.8 -0.7-0.1-1.6 0.1-2.5 0.6 -0.7 0.4-2.3 1.3-3.2 2.2 -0.2 0.2-0.3 0.2-0.4 0.1 -0.1 0-0.1-0.3 0.2-0.5 0.6-0.5 2.3-1.9 4-2.5 0.9-0.3 2.2-0.8 2.8-0.2 0.2 0.2 0.3 0.6 0.2 1.2C26.4 21.3 26 22.1 25.9 22.3"/><path fill="#F5BD47" d="M26.6 22c-0.1 0.1-0.4 0.2-0.2 0.6C26.6 22.5 26.7 22.3 26.6 22"/><path fill="#F5BD47" d="M28.1 22.2c-0.2-0.2-0.3-0.5 0-0.8C28.5 21.4 28.4 21.8 28.1 22.2"/><path fill="#F5BD47" d="M28.7 21.9c0 0.1 0.1 0.4-0.3 0.4C28.4 22.1 28.5 21.9 28.7 21.9"/><path fill="#F5BD47" d="M29.1 22.3l0 0.6C29.2 22.9 29.5 22.6 29.1 22.3"/><path fill="#F5BD47" d="M29.1 23.1l0 0.5C29.3 23.5 29.5 23.1 29.1 23.1"/><path fill="#F5BD47" d="M29.8 22.9c-0.1 0.1-0.2 0.6-0.2 0.7C29.8 23.6 30 23.3 29.8 22.9"/><path fill="#F5BD47" d="M29.9 23.7c-0.1 0.1-0.5 0.2-0.3 0.6C29.7 24.4 30 24.3 29.9 23.7"/><path fill="#F5BD47" d="M29.7 24.6c-0.1 0-0.3 0.2-0.4 0.4C29.5 25 29.7 24.8 29.7 24.6"/><path fill="#F5BD47" d="M29.7 25.3c-0.2 0.1-0.4 0.3-0.4 0.5C29.6 25.7 29.7 25.5 29.7 25.3"/><path fill="#F5BD47" d="M29.6 25.9c-0.1 0-0.6 0.2-0.5 0.6C29.2 26.4 29.5 26.4 29.6 25.9"/><path fill="#F5BD47" d="M30.4 25.4c-0.4 0-0.6 0.1-0.6 0.5C30 25.9 30.4 25.7 30.4 25.4"/><path fill="#F5BD47" d="M31 24.7c-0.2 0-0.7 0.2-0.8 0.3l0.2 0.2C30.7 25.2 31 24.9 31 24.7"/><path fill="#F5BD47" d="M30.2 24.6c-0.2 0-0.5 0-0.4 0.4C30 25 30.2 25 30.2 24.6"/><path fill="#F5BD47" d="M29.9 24.6c0-0.2 0.2-0.6 0.4-0.8 0.1 0 0.7 0.4 0.7 0.4l-0.3 0.5 -0.1-0.3 -0.2 0.2 -0.1-0.2L29.9 24.6z"/><path fill="#F5BD47" d="M30 23.1c0.1 0 0.3 0 0.4 0.4C30.3 23.5 30 23.2 30 23.1"/><path fill="#F5BD47" d="M30.5 23.3c0.3 0 0.3-0.2 0.3-0.2 0.3 0.2 0.6 0.8 0.4 0.9C31.1 24.1 30.6 23.4 30.5 23.3"/><path fill="#F5BD47" d="M29.8 22c0.4 0 0.6 0.2 0.9 0.8C30.6 22.8 30.1 23 29.8 22"/><path fill="#F5BD47" d="M29.2 22.1c-0.1-0.2-0.9-1.3-0.6-2.3 0.3-0.6 1.1-0.6 1.9-0.4 0.7 0.2 3 0.9 5.1 2.5 0.3 0.2 0.4 0.5 0.3 0.5 0 0.1-0.4-0.1-0.6-0.2 -0.3-0.2-2.3-1.6-3.5-2 -0.7-0.2-2.2-0.7-2.6 0 -0.2 0.5 0.1 1.2 0.3 1.6C29.6 22.1 29.6 22.5 29.2 22.1"/><path fill="#F5BD47" d="M29.4 21.1c0.5 0 0.6 0.3 0.7 0.5C30 21.6 29.5 21.5 29.4 21.1"/><path fill="#F5BD47" d="M29.5 20.4c-0.1 0.1-0.1 0.4 0.5 0.6C30 20.7 29.9 20.4 29.5 20.4"/><path fill="#F5BD47" d="M30 20.2c0.1 0.3 0.1 0.7 0.9 0.7C30.9 20.7 30.7 20.1 30 20.2"/><path fill="#F5BD47" d="M31 20.3c0.4 0 0.8 0 1.2 0.7C31.9 21.1 31.2 20.9 31 20.3"/><path fill="#F5BD47" d="M30.3 21.1c0.2 0.1 0.6 0.2 0.6 0.1 0.1 0.1 0.2 0.4-0.1 0.4C30.6 21.6 30.3 21.2 30.3 21.1"/><path fill="#F5BD47" d="M30.6 22c0.5 0 0.8 0.2 1 1C31.2 22.9 30.8 22.6 30.6 22"/><path fill="#F5BD47" d="M31.2 21.6c0.6 0.3 1 0.6 0.8 1.1C31.9 22.8 31.5 22.5 31.2 21.6"/><path fill="#F5BD47" d="M31.4 21.1c0.1 0.1 0.8 0.2 0.8 0.2 0.1 0.2 0.3 0.6 0 0.5C32 21.7 31.4 21.2 31.4 21.1"/><path fill="#F5BD47" d="M32.3 20.8c0.6 0.1 1 0.5 1 0.7C33.1 21.4 32.5 20.9 32.3 20.8"/><path fill="#F5BD47" d="M33.8 21.6c0.4 0.1 0.8 0.3 0.9 0.7C34.5 22.1 33.9 21.6 33.8 21.6"/><path fill="#F5BD47" d="M33.4 21.6c-0.1 0.1-0.3 0.2-0.4 0.1 -0.1 0 0.6 0.5 0.8 0.5C34 22.2 33.5 21.7 33.4 21.6"/><path fill="#F5BD47" d="M32.3 22.2c0.3-0.2 0.5 0.1 0.7 0.7C32.8 22.9 32.5 22.8 32.3 22.2"/><path fill="#F5BD47" d="M33 22.2c0.5 0.1 0.8 0.4 0.8 1C33.5 23.2 33.2 22.9 33 22.2"/><path fill="#F5BD47" d="M33.9 22.6c0.4 0 0.8 0.1 1.1 1.4C34.6 23.9 34.2 23.6 33.9 22.6"/><path fill="#F5BD47" d="M34.6 22.6c0.2 0 0.5 0.1 0.6 0.2 0.1 0.1 0.7 1 0.7 1.3 0 0.3-0.1 0.3-0.1 0.3 -0.1 0-0.2-0.1-0.4-0.4C35.3 23.8 34.7 22.8 34.6 22.6"/><path fill="#F5BD47" d="M35.3 22.6c0.3 0.1 1 0.9 1.4 1.7 0.1 0.2-0.1 0.4-0.2 0.3 -0.1 0-0.3 0-0.5-0.6C35.8 23.5 35.5 22.7 35.3 22.6"/><path fill="#F5BD47" d="M36.1 22.9l0.2-0.3c0.3 0.1 1.3 1.2 1.1 1.7 -0.1 0.1-0.4 0-0.5-0.1C36.9 24.1 36.3 23.1 36.1 22.9"/><path fill="#F5BD47" d="M31.3 23.3c0.1 0.1 0.5 0.2 0.5 0 0.1 0.1 0.6 1 0.4 1.1C31.8 24.5 31.6 23.6 31.3 23.3"/><path fill="#F5BD47" d="M31.9 23.1c0.2 0 0.5 0 0.5 0l0.5 1.1c0.1 0.2 0.2 0.4 0 0.5 -0.2 0-0.3-0.2-0.4-0.3C32.4 24.1 31.9 23.1 31.9 23.1"/><path fill="#F5BD47" d="M33.8 25c-0.2-0.3-0.5-1.2-0.5-1.5 -0.1-0.2-0.5-0.4-0.7-0.4C32.7 23.6 33.4 24.9 33.8 25"/><path fill="#F5BD47" d="M34.4 25.3c-0.1-0.3-0.5-1.1-0.5-1.6l-0.4-0.1C33.6 23.9 33.8 24.9 34.4 25.3"/><path fill="#F5BD47" d="M34.3 24c0.1 0.1 0.3 0.3 0.5 0.3 0 0.2 0.2 1.2 0.3 1.4C34.9 25.5 34.3 24.8 34.3 24"/><path fill="#F5BD47" d="M35 24.3l0.6 0.4c0 0 0.1 1.2 0.3 1.6C35.7 26.1 35.1 25.1 35 24.3"/><path fill="#F5BD47" d="M35.8 24.7l0.6 0c0.1 0.5 0.1 1.3 0.3 1.5l-0.2 0.2C36.3 26.3 35.9 25.7 35.8 24.7"/><path fill="#F5BD47" d="M36.5 24.8c0.3 0 0.7-0.2 0.7-0.2 0.1 0.1 0.1 0.6 0.1 0.8l-0.5 0.4L36.5 24.8z"/><path fill="#F5BD47" d="M37.2 26.5c0 0.3-0.1 1.2 0.7 1.6 0-0.1-0.2-1.4-0.3-1.6L37.2 26.5z"/><path fill="#F5BD47" d="M37.7 26.5c0.2 0.7 0.5 1.8 0.5 2.1 0.1 0.3 0.3 0.9 0.5 1 0.1 0 0.1 0 0.1 0s-0.1-1.2-0.1-1.5c-0.1-0.3-0.5-1.5-0.7-1.8L37.7 26.5z"/><path fill="#F5BD47" d="M38.2 26.1c0.2 0.3 0.7 1.8 0.8 2.3 0.1 0.6 0.2 1.6 0.3 1.8 0.1 0.2 0.3 0.7 0.5 0.7 0.1 0 0.2-0.4 0.1-0.7 -0.1-1.2-0.6-3.6-1.4-4.7L38.2 26.1z"/><polygon fill="#D18A00" points="23.1 38.9 23.9 39.3 20 43.2 19.6 42.3 "/><path fill="#FFFFFF" d="M21.2 40.5L21.2 40.5c-3.2-1-4-3-4.2-3.7 -0.5-1.2-0.3-3.2 0-4 0.2-0.4 1.1-3.5 1.2-3.8 0-0.1 0-0.1 0-0.2 0.1-0.5 0.2-1.3 0.2-2.1l0-0.3 1.1 0.9 0 0c0.4 0.9 1.5 1.5 1.5 1.5l0.1 0.1L21 29.1c1 0.8 1.3 2 1 3.9 -0.1 0.3-0.1 0.5-0.2 0.8 -0.1 0.2-0.1 0.4-0.2 0.7 -0.2 0.7-0.1 1.3-0.1 1.8 0.1 0.9 0.7 1.7 1.6 2.2l0.2 0.1L21.2 40.5z"/><polygon fill="#F5BD47" points="19.9 42.9 19.6 42.4 23.2 39 23.6 39.2 "/><path fill="#FFFFFF" d="M24.1 39.3c0.4 0 1.8 0.4 2.4 0.9v3.3l-1.4-0.9 -0.2 0.6c0 0-2.5-1.2-2.8-1.8L24.1 39.3z"/><polygon fill="#231F20" points="22.7 40.9 23.7 40 23.6 42.2 22.7 41.8 "/><path fill="#231F20" d="M24.2 39.5c0.2 0 0.6 0 0.9 0.2L25 42.2l-0.8-0.4V39.5z"/><polygon fill="#231F20" points="24.1 42.1 24.7 42.4 24.7 42.8 24.1 42.5 "/><polygon fill="#231F20" points="25.5 39.9 26.3 40.2 26.3 43 25.4 42.4 "/><path fill="#231F20" d="M27.9 27l3.7-0.1c0.6 0.7 1.8 1 2.4 0.9l0.7 1.2c-1.1 1-1.1 2.1-1 3.3 0 0.5 0.3 1.3 0.4 1.9 0.2 0.8 0.3 1 0.2 1.5 0 0.8-0.1 1.8-1.3 2.4 -0.5 0.3-2 0.7-2.3 0.8 -0.5 0.2-1.7 0.5-2.8 1.8 -1.2-1.3-2.3-1.6-2.8-1.8 -0.3-0.1-1.8-0.5-2.3-0.8 -1.1-0.6-1.2-1.6-1.3-2.4 0-0.5 0-0.7 0.2-1.5 0.1-0.5 0.4-1.3 0.4-1.9 0.1-1.2 0.1-2.3-1-3.3l0.7-1.2c0.5 0 1.8-0.2 2.4-0.9L27.9 27 27.9 27z"/><path fill="#FFFFFF" d="M34.6 40.5l-2-1.9 0.2-0.1c1-0.5 1.6-1.3 1.6-2.2 0-0.5 0-1.2-0.1-1.8 -0.1-0.2-0.1-0.5-0.2-0.7 -0.1-0.3-0.2-0.5-0.2-0.8 -0.3-1.9 0-3.1 1-3.9l-0.1-0.3 0.1-0.1c0 0 1.2-0.7 1.6-1.9l0 0 0.3-0.3 0.7 0 0 0.2c0 0.8 0.1 1.6 0.2 2.1 0 0.1 0 0.2 0 0.2 0.1 0.4 1 3.4 1.2 3.8 0.3 0.9 0.5 2.8 0 4C38.6 37.6 37.8 39.6 34.6 40.5L34.6 40.5z"/><path fill="#F5BD47" d="M35 29.1l-0.8-1.6c-1 0.1-2.1-0.5-2.5-0.9l-3.8 0.1 -3.7-0.1c-0.4 0.4-1.4 1-2.5 0.9l-0.8 1.6c1.3 0.9 1.3 2.6 1 3.8 -0.1 0.5-0.3 1-0.4 1.5 -0.2 0.8-0.2 1.4-0.1 1.9 0 0.8 0.5 1.6 1.6 2.2 0.4 0.2 1.6 0.5 1.8 0.6 0.5 0.2 1.7 0.5 3.1 2 1.4-1.6 2.7-1.8 3.1-2 0.3-0.1 1.5-0.4 1.8-0.6 1.1-0.6 1.6-1.5 1.6-2.2 0-0.5 0-1.1-0.1-1.9 -0.1-0.5-0.3-1-0.4-1.5C33.7 31.7 33.6 30.1 35 29.1zM33.6 32.4c0 0.5 0.3 1.3 0.4 1.9 0.2 0.8 0.3 1 0.2 1.5 0 0.8-0.1 1.8-1.3 2.4 -0.5 0.3-2 0.7-2.3 0.8 -0.5 0.2-1.7 0.5-2.8 1.8 -1.2-1.3-2.3-1.6-2.8-1.8 -0.3-0.1-1.8-0.5-2.3-0.8 -1.1-0.6-1.2-1.6-1.3-2.4 0-0.5 0-0.7 0.2-1.5 0.1-0.5 0.4-1.3 0.4-1.9 0.1-1.2 0.1-2.3-1-3.3l0.7-1.2c0.5 0 1.8-0.2 2.4-0.9l3.7 0.1 3.7-0.1c0.6 0.7 1.8 1 2.4 0.9l0.7 1.2C33.5 30.1 33.5 31.2 33.6 32.4z"/><path fill="#FFFFFF" d="M31.8 39.3c-0.4 0-1.8 0.4-2.4 0.9v3.3l1.4-0.9 0.2 0.6c0 0 2.5-1.2 2.8-1.8L31.8 39.3z"/><polygon fill="#231F20" points="33.1 40.9 32.1 40 32.2 42.2 33.1 41.8 "/><path fill="#231F20" d="M31.7 39.5c-0.2 0-0.6 0-0.9 0.2l0.1 2.5 0.8-0.4V39.5z"/><polygon fill="#231F20" points="30.4 39.9 29.6 40.2 29.5 43 30.4 42.4 "/><path fill="#F5BD47" d="M26.6 28.4c0 0.4 0.6 0.7 1.3 0.7 0.7 0 1.3-0.3 1.3-0.7 0-0.4-0.6-0.7-1.3-0.7C27.2 27.7 26.6 28 26.6 28.4"/><polygon fill="#F5BD47" points="28.8 29 22.3 27.6 22.2 27.8 28.4 29.1 "/><path fill="#D18A00" d="M28.4 29.1L28.4 29.1l-6.2-1.3 0.2-0.3 0 0 6.5 1.4L28.4 29.1zM22.2 27.8l6.1 1.3 0.3-0.1 -6.3-1.4L22.2 27.8z"/><path fill="#D18A00" d="M21.5 27.5l1.2 0 -0.1 0.2c-0.1 0-0.2 0.1-0.2 0.2L22.3 28 21.5 27.5z"/><path fill="#F5BD47" d="M21.7 27.5l0.9 0 -0.1 0.1c-0.2-0.1-0.3 0.2-0.2 0.3l0 0.1L21.7 27.5z"/><polygon fill="#F5BD47" points="28.2 29 22.4 26.6 22.3 26.8 28 29.1 "/><path fill="#D18A00" d="M28 29.1l-5.7-2.3 0.2-0.2 5.8 2.4L28 29.1zM22.3 26.8l5.6 2.3 0.2-0.1 -5.7-2.4L22.3 26.8z"/><path fill="#D18A00" d="M21.6 26.4l1.1 0.2 -0.1 0.2c-0.1 0-0.2 0.1-0.1 0.2L22.4 27 21.6 26.4z"/><path fill="#F5BD47" d="M21.8 26.4l0.8 0.1 0 0.1c-0.1-0.1-0.3 0.1-0.2 0.2l0 0.1L21.8 26.4z"/><polyline fill="#F5BD47" points="28.4 29.1 23.2 26.3 23.2 26.5 28 29.1 "/><path fill="#D18A00" d="M28 29.1L28 29.1l-4.9-2.6 0.1-0.3 0 0 5.2 2.8L28 29.1zM23.2 26.5l4.8 2.6 0.3 0 -5-2.7L23.2 26.5z"/><path fill="#D18A00" d="M22.6 26.1l1 0.2 -0.1 0.2c-0.1 0-0.2 0.1-0.1 0.2l-0.1 0.2L22.6 26.1z"/><path fill="#F5BD47" d="M22.8 26.2l0.7 0.1 0 0.1c-0.1 0-0.2 0.1-0.2 0.2l0 0.1L22.8 26.2z"/><polygon fill="#F5BD47" points="26.9 28.9 33.2 27.6 33.3 27.8 27.3 29.1 "/><path fill="#D18A00" d="M27.3 29.1l-0.4-0.2 6.3-1.4 0.2 0.3L27.3 29.1zM27 28.9l0.3 0.1 6-1.3 -0.1-0.2L27 28.9z"/><path fill="#D18A00" d="M34.1 27.5l-1.2 0 0.1 0.2c0.1 0 0.2 0.1 0.2 0.2l0.1 0.2L34.1 27.5z"/><path fill="#F5BD47" d="M33.8 27.5l-0.9 0 0.1 0.1c0.2-0.1 0.3 0.2 0.2 0.3l0 0.1L33.8 27.5z"/><polygon fill="#F5BD47" points="27.3 29 33.1 26.6 33.2 26.8 27.6 29.1 "/><path fill="#D18A00" d="M27.6 29.1L27.2 29l0.1 0 5.8-2.4 0.2 0.2L27.6 29.1zM27.3 29l0.3 0.1 5.5-2.3 -0.1-0.2L27.3 29z"/><path fill="#D18A00" d="M33.9 26.4l-1.1 0.2 0.1 0.2c0.1 0 0.2 0.1 0.1 0.2l0.1 0.2L33.9 26.4z"/><path fill="#F5BD47" d="M33.7 26.4l-0.8 0.1 0 0.1c0.1-0.1 0.3 0.1 0.2 0.2l0 0.1L33.7 26.4z"/><polygon fill="#F5BD47" points="27.2 29.1 32.3 26.3 32.4 26.5 27.5 29.1 "/><path fill="#D18A00" d="M27.5 29.1l-0.4-0.1 5.2-2.8 0.1 0.3L27.5 29.1zM27.3 29l0.3 0 4.8-2.6 -0.1-0.2L27.3 29z"/><path fill="#D18A00" d="M32.9 26.1l-1 0.2 0.1 0.2c0.1 0 0.2 0.1 0.1 0.2l0.1 0.2L32.9 26.1z"/><path fill="#F5BD47" d="M32.7 26.2l-0.7 0.1 0 0.1c0.1 0 0.2 0.1 0.2 0.2l0 0.1L32.7 26.2z"/><path fill="#231F20" d="M26.9 28.8c0.2 0.2 0.6 0.3 1 0.3 0.4 0 0.8-0.1 1-0.3l0.1 0.3c0 0-1.4 0.3-2 0.1C26.4 29.1 26.9 28.8 26.9 28.8"/><path fill="#231F20" d="M25.5 26.4c-0.2 0-0.4 0.1-0.4 0.2 -0.1 0.1-0.1 0.2 0.1 0.2l1.8 0c0 0 0.4-0.1 0.4-0.1 0 0 1 0 1.1 0 0.1 0 0.1 0 0.3 0.1h2c-0.1-0.2-0.6-0.4-0.6-0.4 -0.2 0.1-1.3 0.2-1.6 0.2 -0.3 0-0.8 0-0.9 0C27.6 26.6 25.7 26.5 25.5 26.4"/><path fill="#F5BD47" d="M25.3 26.7c-0.1 0-0.4 0.1 0 0.4 0-0.1 0.1-0.2 0.2-0.3C25.5 26.7 25.4 26.7 25.3 26.7"/><path fill="#231F20" d="M25.4 27.1L25.4 27.1c-0.2-0.2-0.3-0.3-0.3-0.4 0-0.1 0.2-0.2 0.2-0.2l0 0 0 0c0.1 0 0.2 0.1 0.2 0.1 0 0 0 0.1 0 0.1C25.5 26.9 25.4 27 25.4 27.1L25.4 27.1zM25.3 26.7c0 0-0.1 0-0.1 0.1 0 0 0 0.1 0.1 0.2 0-0.1 0.1-0.1 0.1-0.2C25.4 26.7 25.4 26.7 25.3 26.7z"/><path fill="#F5BD47" d="M26 26.7c-0.1 0-0.4 0.1 0 0.4 0-0.1 0.1-0.2 0.2-0.3C26.2 26.7 26.1 26.7 26 26.7"/><path fill="#231F20" d="M26 27.1L26 27.1c-0.2-0.2-0.3-0.3-0.3-0.4 0-0.1 0.2-0.2 0.2-0.2l0 0 0 0c0.1 0 0.2 0.1 0.2 0.1 0 0 0 0.1 0 0.1C26.1 26.9 26.1 27 26 27.1L26 27.1zM26 26.7c0 0-0.1 0-0.1 0.1 0 0 0 0.1 0.1 0.2 0-0.1 0.1-0.1 0.1-0.2C26.1 26.7 26 26.7 26 26.7z"/><path fill="#F5BD47" d="M26.7 26.7c-0.1 0-0.4 0.1 0 0.4 0-0.1 0.1-0.2 0.2-0.3C26.9 26.7 26.8 26.7 26.7 26.7"/><path fill="#231F20" d="M26.7 27.1L26.7 27.1c-0.2-0.2-0.3-0.3-0.3-0.4 0-0.1 0.2-0.2 0.2-0.2l0 0 0 0c0.1 0 0.2 0.1 0.2 0.1 0 0 0 0.1 0 0.1C26.8 26.9 26.8 27 26.7 27.1L26.7 27.1zM26.7 26.7c0 0-0.1 0-0.1 0.1 0 0 0 0.1 0.1 0.2 0-0.1 0.1-0.1 0.1-0.2C26.8 26.7 26.7 26.7 26.7 26.7z"/><path fill="#F5BD47" d="M29 26.7c-0.1 0-0.4 0.1 0 0.4 0-0.1 0.1-0.2 0.2-0.3C29.2 26.7 29.1 26.7 29 26.7"/><path fill="#231F20" d="M29 27.1L29 27.1c-0.2-0.2-0.3-0.3-0.3-0.4 0-0.1 0.2-0.2 0.2-0.2l0 0 0 0c0.1 0 0.2 0.1 0.2 0.1 0 0 0 0.1 0 0.1C29.1 26.9 29.1 27 29 27.1L29 27.1zM29 26.7c0 0-0.1 0-0.1 0.1 0 0 0 0.1 0.1 0.2 0-0.1 0.1-0.1 0.1-0.2C29.1 26.7 29 26.7 29 26.7z"/><path fill="#F5BD47" d="M29.6 26.7c-0.1 0-0.4 0.1 0 0.4 0-0.1 0.1-0.2 0.2-0.3C29.8 26.7 29.7 26.7 29.6 26.7"/><path fill="#231F20" d="M29.7 27.1L29.7 27.1c-0.2-0.2-0.3-0.3-0.3-0.4 0-0.1 0.2-0.2 0.2-0.2l0 0 0 0c0.1 0 0.2 0.1 0.2 0.1 0 0 0 0.1 0 0.1C29.7 26.9 29.7 27 29.7 27.1L29.7 27.1zM29.6 26.7c0 0-0.1 0-0.1 0.1 0 0 0 0.1 0.1 0.2 0-0.1 0.1-0.1 0.1-0.2C29.7 26.7 29.7 26.7 29.6 26.7z"/><path fill="#F5BD47" d="M30.3 26.7c-0.1 0-0.4 0.1 0 0.4 0-0.1 0.1-0.2 0.2-0.3C30.5 26.7 30.4 26.7 30.3 26.7"/><path fill="#231F20" d="M30.4 27.1L30.4 27.1c-0.2-0.2-0.3-0.3-0.3-0.4 0-0.1 0.2-0.2 0.2-0.2l0 0 0 0c0.1 0 0.2 0.1 0.2 0.1 0 0 0 0.1 0 0.1C30.4 26.9 30.4 27 30.4 27.1L30.4 27.1zM30.3 26.7c0 0-0.1 0-0.1 0.1 0 0 0 0.1 0.1 0.2 0-0.1 0.1-0.1 0.1-0.2C30.4 26.7 30.4 26.7 30.3 26.7z"/><path fill="#F5BD47" d="M23.8 31.7c0-0.2-0.1-0.3-0.1-0.3l0 0.1c0-0.1-0.3-0.9-0.4-1.1 0 0.1 0.3 1.5 0.3 1.5l0.2-0.1L23.8 31.7z"/><path fill="#F5BD47" d="M25.6 32c0.2-0.2 0.3-0.5 0.3-0.6 0 0.1-0.1 0.5-0.2 0.7L25.6 32z"/><path fill="#F5BD47" d="M25.6 32.4c0 0 0 0.2 0.1 0.2l0 0.1 0 0.1c0 0-0.4 0.2-0.8 0.2 0.1-0.1 0.3-0.3 0.8-0.4 0 0-0.1-0.1-0.1-0.2C25.5 32.6 25.6 32.4 25.6 32.4"/><path fill="#F5BD47" d="M24.5 33.8l0.4 0c0 0 0 0.2 0.1 0.2 0.1 0-0.3 0.1-0.3 0.2 0 0-0.3-0.1-0.3-0.1C24.4 34 24.5 33.8 24.5 33.8"/><path fill="#F5BD47" d="M22.9 34.8c0-0.1 0.3-0.2 0.6-0.2 0.2 0 0.5-0.1 0.6-0.1 0.1 0 0.9-0.2 1.1 0l-0.3 0.8 0.1 0.1c0 0 0 0.4 0 0.4 0 0-0.2 0.3-0.4 0.4 -0.1-0.1-0.1-0.5-0.1-0.5 -0.1 0-0.3 0.2-0.7 0 0 0 0.7-0.4 0.9-0.7 0 0-0.4-0.1-0.4-0.1 0 0.2-0.2 0.4-0.5 0.5 0-0.1 0.3-0.5 0.3-0.5 0 0-0.3-0.1-0.4 0 -0.1 0-0.1 0.5-0.6 0.5 0-0.2 0.5-0.6 0.5-0.6C23.4 34.7 22.9 34.8 22.9 34.8"/><path fill="#F5BD47" d="M30.2 36.3l0.2 0.1 0.4-0.3c0 0 0.4 0.5 0.4 0.5 0 0 0.1-0.3 0.1-0.6 0.1 0.1 0.4 0.3 0.5 0.3 0 0 0-0.3-0.1-0.3 0.2 0.1 0.5 0 0.7 0 -0.1-0.1-0.4-0.3-0.5-0.3 0.1 0 0.8-0.1 0.9-0.4 -0.3 0.1-0.7 0.2-1.2 0.2l0.3-0.5 0-0.2c0 0-0.6 0.6-0.9 0.7 0 0 0.4-0.5 0.4-0.6l-0.1-0.1c0 0-0.2 0.1-0.4 0.1 0.1 0 0.2-0.5 0.3-0.4l0.2-0.4c-0.1-0.1-0.4 0-0.5 0.1 -0.1 0-0.4 0.3-0.4 0.4l0.1 0.8c0 0-0.1 0.2-0.2 0.3 0 0 0-0.2 0-0.2l-0.2 0 0 0.4c0 0 0.4-0.2 0.5-0.2 0 0-0.3 0.3-0.4 0.4L30.2 36.3z"/><path fill="#F5BD47" d="M32.2 33.7c0.2-0.2 0.4-0.7 0.4-0.8 0 0.2-0.1 0.8-0.3 1C32.3 33.9 32.2 33.8 32.2 33.7"/><path fill="#F5BD47" d="M31.2 33.6c0 0-0.2 0-0.3 0 0 0-0.2-0.2-0.3-0.3 -0.1 0-0.3-0.1-0.3-0.5 0 0.1 0.3 0.3 0.7 0.3L31.2 33.6z"/><path fill="#F5BD47" d="M31.1 33c0 0-0.5-0.5-1-0.6 0-0.1 0.2-0.2 0.4 0 0 0-0.2-0.3-0.2-0.4 0-0.1 0-0.2 0-0.2 0.1 0 0.4 0.2 0.4 0.2 0.1 0.1 0.1 0.4 0.1 0.4C30.9 32.5 31.2 33 31.1 33L31.1 33z"/><path fill="#F5BD47" d="M30.9 32.1c0-0.1 0-0.3 0.1-0.5l0.1 0.5H30.9z"/><path fill="#F5BD47" d="M31.5 32.3c0.1-0.2 0.3-0.6 0.4-0.7 0 0 0 0.1 0 0.1s0.2-0.3 0.2-0.3c0 0 0 0.2-0.1 0.2 0 0-0.1 0.2-0.1 0.2 0 0-0.1 0.1-0.1 0.1 0 0 0 0.3 0 0.4 0 0-0.2 0.2-0.2 0.2L31.5 32.3z"/><polygon fill="#D18A00" points="30.5 34.2 30.9 35 30.9 35.5 30.5 35.5 30.5 36.1 30.3 36.3 29.8 36.3 29.7 35.5 26 35.5 26 36.3 25.5 36.3 25.3 36.1 25.3 35.5 24.8 35.5 24.8 35 25.4 34.1 "/><rect x="30.1" y="35.5" fill="#F5BD47" width="0.1" height="0.7"/><rect x="24.9" y="35" fill="#F5BD47" width="5.9" height="0.1"/><rect x="25.5" y="35.5" fill="#F5BD47" width="0.1" height="0.7"/><path fill="#FFFFFF" d="M31.4 33.2c0.1 0 0.4 0.1 0.5 0.1 0.1 0 0.5 0.1 0.4 0.5 0.1-0.1 0.3-0.2 0.4 0 0.1 0.2 0.1 0.4 0.3 0.5 -0.1 0-0.3 0.1-0.4 0.2 -0.1 0.1-0.3 0.2-0.4 0 0 0.1 0 0.4-0.2 0.4 -0.2 0-0.5 0.1-0.5 0.2 0-0.1 0-0.3-0.1-0.4 -0.1-0.1-0.2-0.5 0.2-0.6 -0.1 0-0.3-0.2-0.2-0.4C31.4 33.6 31.4 33.4 31.4 33.2"/><path fill="#F5BD47" d="M31.4 35.2C31.4 35.2 31.4 35.2 31.4 35.2 31.4 35.2 31.4 35.2 31.4 35.2c0-0.1 0-0.3-0.1-0.4 0 0-0.1-0.2-0.1-0.4 0-0.1 0.1-0.2 0.2-0.2 0 0-0.1-0.1-0.1-0.1 -0.1-0.1-0.1-0.2-0.1-0.3l0 0c0-0.2 0.1-0.4 0-0.5 0 0 0 0 0 0 0 0 0 0 0 0 0 0 0.3 0.1 0.4 0.1 0 0 0 0 0 0 0.1 0 0.3 0 0.4 0.2 0.1 0.1 0.1 0.2 0.1 0.3 0.1 0 0.1-0.1 0.2-0.1 0.1 0 0.2 0 0.2 0.1 0.1 0.1 0.1 0.2 0.1 0.2 0 0.1 0.1 0.2 0.2 0.3 0 0 0 0 0 0s0 0 0 0l0 0c-0.1 0-0.3 0.1-0.4 0.2 -0.1 0-0.1 0.1-0.2 0.1 -0.1 0-0.1 0-0.2-0.1 0 0.1 0 0.2 0 0.2 0 0.1-0.1 0.1-0.2 0.2C31.8 35 31.5 35.1 31.4 35.2 31.4 35.2 31.4 35.2 31.4 35.2zM31.4 33.3c0 0.1 0 0.3-0.1 0.5l0 0c0 0.1 0 0.1 0.1 0.2 0.1 0.1 0.1 0.1 0.2 0.2 0 0 0 0 0 0 0 0 0 0 0 0 -0.1 0-0.2 0.1-0.3 0.2 0 0.1 0 0.3 0.1 0.3 0.1 0.1 0.1 0.2 0.1 0.3 0.1-0.1 0.3-0.1 0.5-0.1 0.1 0 0.1-0.1 0.2-0.1 0.1-0.1 0-0.2 0-0.3 0 0 0 0 0 0 0 0 0 0 0 0 0.1 0.1 0.1 0.1 0.2 0.1 0.1 0 0.2 0 0.2-0.1 0.1 0 0.2-0.2 0.4-0.2 -0.1-0.1-0.1-0.2-0.2-0.3 0-0.1 0-0.1-0.1-0.2 0-0.1-0.1-0.1-0.2-0.1 -0.1 0-0.2 0.1-0.2 0.1 0 0 0 0 0 0 0 0 0 0 0 0 0-0.1 0-0.2 0-0.3 -0.1-0.1-0.3-0.2-0.3-0.2 0 0 0 0 0 0C31.7 33.4 31.5 33.3 31.4 33.3z"/><path fill="#D18A00" d="M31.9 33.9c0-0.1-0.2-0.2-0.2-0.2C31.9 33.8 32 33.9 31.9 33.9L31.9 33.9z"/><path fill="#D18A00" d="M32.3 34.3C32.3 34.3 32.2 34.2 32.3 34.3L32.3 34.3c0 0 0.2 0 0.2 0C32.4 34.3 32.4 34.3 32.3 34.3"/><path fill="#D18A00" d="M31.7 34.7c0-0.1 0-0.2 0-0.2l0 0C31.7 34.5 31.7 34.7 31.7 34.7"/><path fill="#F5BD47" d="M31.9 33.9c-0.1 0-0.3 0-0.2 0.2 -0.1 0-0.2 0.2 0 0.3 0.1 0 0.3 0 0.3-0.1 0.1 0 0.3 0 0.3-0.1 0-0.1-0.1-0.2-0.2-0.2C32.1 34 32 33.9 31.9 33.9"/><path fill="#D18A00" d="M31.8 34.2c0 0.1 0 0.1 0.1 0.1 0.1 0 0.1 0 0.1-0.1 0-0.1 0-0.1-0.1-0.1C31.9 34.1 31.9 34.2 31.8 34.2"/><path fill="#FFFFFF" d="M30.7 32c0.1 0 0.4 0 0.5 0 0.1 0 0.5 0 0.5 0.4 0.1-0.1 0.2-0.2 0.4-0.1 0.2 0.1 0.2 0.4 0.5 0.4 -0.1 0-0.3 0.2-0.4 0.3 -0.1 0.1-0.2 0.2-0.4 0.1 0 0.1 0.1 0.4-0.1 0.5 -0.2 0.1-0.4 0.2-0.5 0.3 0-0.1-0.1-0.3-0.1-0.3 -0.1 0-0.4-0.4 0.1-0.6 -0.1 0-0.3-0.1-0.3-0.3C30.8 32.4 30.8 32.1 30.7 32"/><path fill="#F5BD47" d="M31.2 33.9C31.2 33.9 31.2 33.9 31.2 33.9 31.2 33.9 31.2 33.9 31.2 33.9c0-0.1-0.1-0.3-0.2-0.3 -0.1 0-0.2-0.2-0.2-0.4 0-0.1 0.1-0.2 0.2-0.3 -0.1 0-0.3-0.2-0.3-0.3l0 0c0-0.2 0-0.4-0.1-0.5 0 0 0 0 0 0 0 0 0 0 0 0 0 0 0 0 0.1 0 0.1 0 0.3 0 0.4-0.1 0 0 0.1 0 0.1 0 0.1 0 0.2 0 0.3 0.1 0.1 0.1 0.1 0.1 0.1 0.2 0.1-0.1 0.2-0.1 0.3-0.1 0.1 0 0.1 0 0.2 0.1 0.1 0.1 0.1 0.1 0.2 0.2 0.1 0.1 0.1 0.2 0.3 0.2 0 0 0 0 0 0 0 0 0 0 0 0 -0.1 0-0.3 0.2-0.4 0.3 0 0.1-0.1 0.2-0.3 0.2 0 0-0.1 0-0.1 0 0 0.1 0 0.1 0 0.2 0 0.1-0.1 0.2-0.2 0.2C31.4 33.7 31.3 33.8 31.2 33.9 31.3 33.9 31.2 33.9 31.2 33.9zM30.8 32.1c0.1 0.1 0.1 0.3 0.1 0.5l0 0c0 0.2 0.2 0.3 0.3 0.3 0 0 0 0 0 0 0 0 0 0 0 0C31 33 31 33.1 31 33.2c0 0.2 0.1 0.3 0.1 0.3 0.1 0 0.1 0.2 0.1 0.3 0.1-0.1 0.3-0.2 0.4-0.2 0.1 0 0.1-0.1 0.1-0.2 0-0.1 0-0.2 0-0.3 0 0 0 0 0 0 0 0 0 0 0 0 0.1 0 0.1 0 0.2 0 0.1 0 0.2-0.1 0.2-0.1 0-0.1 0.2-0.2 0.3-0.3 -0.1 0-0.2-0.1-0.2-0.2 0-0.1-0.1-0.1-0.2-0.2 0 0-0.1 0-0.1 0 -0.1 0-0.2 0.1-0.3 0.1 0 0 0 0 0 0 0 0 0 0 0 0 0-0.1 0-0.2-0.1-0.3C31.4 32 31.3 32 31.2 32c0 0-0.1 0-0.1 0C31.1 32.1 30.9 32.1 30.8 32.1z"/><path fill="#D18A00" d="M31.4 32.6c-0.1-0.1-0.2-0.2-0.2-0.2C31.3 32.4 31.5 32.5 31.4 32.6L31.4 32.6z"/><path fill="#D18A00" d="M31.9 32.8C31.8 32.8 31.8 32.8 31.9 32.8L31.9 32.8c0 0 0.2 0 0.2 0C32 32.8 31.9 32.8 31.9 32.8"/><path fill="#D18A00" d="M31.4 33.3c0-0.1 0-0.2 0-0.2l0 0C31.4 33.1 31.4 33.3 31.4 33.3"/><path fill="#F5BD47" d="M31.4 32.6c-0.1 0-0.2 0.1-0.1 0.3 -0.1 0.1-0.1 0.3 0 0.3 0.1 0 0.2-0.1 0.2-0.2 0.1 0 0.3-0.1 0.2-0.2 0-0.1-0.1-0.1-0.2-0.1C31.6 32.6 31.5 32.5 31.4 32.6"/><path fill="#D18A00" d="M31.4 32.8c0 0.1 0 0.1 0.1 0.1 0.1 0 0.1 0 0.1-0.1 0-0.1 0-0.1-0.1-0.1C31.5 32.7 31.4 32.8 31.4 32.8"/><path fill="#FFFFFF" d="M22.6 32.1c0.1 0 0.4-0.2 0.4-0.3 0-0.1 0.5-0.3 0.7 0.1 0-0.1 0.1-0.4 0.4-0.3 0.2 0 0.4 0.3 0.7 0.1 -0.1 0.1-0.2 0.4-0.2 0.5 0 0.1-0.1 0.3-0.3 0.3 0.1 0 0.3 0.3 0.2 0.5 -0.1 0.2-0.3 0.4-0.3 0.5 0-0.1-0.2-0.2-0.3-0.2 -0.1 0-0.6-0.2-0.3-0.6 -0.1 0.1-0.4 0.1-0.5-0.1C22.9 32.4 22.7 32.1 22.6 32.1"/><path fill="#F5BD47" d="M24.1 33.6C24.1 33.6 24.1 33.6 24.1 33.6c-0.1-0.1-0.2-0.2-0.3-0.2 -0.1 0-0.3-0.1-0.4-0.3 -0.1-0.1-0.1-0.2 0-0.4 -0.1 0-0.4 0-0.5-0.2l0 0c-0.1-0.2-0.3-0.4-0.4-0.4 0 0 0 0 0 0 0 0 0 0 0 0 0.1 0 0.3-0.2 0.4-0.3 0-0.1 0.2-0.2 0.4-0.2 0.1 0 0.2 0 0.3 0.2 0-0.1 0.1-0.3 0.4-0.3 0.1 0 0.2 0 0.3 0.1 0.1 0 0.2 0.1 0.2 0.1 0 0 0.1 0 0.2 0 0 0 0 0 0 0 0 0 0 0 0 0 -0.1 0.1-0.1 0.3-0.2 0.5 0 0.2-0.1 0.3-0.3 0.4 0.1 0 0.1 0.1 0.1 0.2 0 0.1 0 0.2 0 0.3C24.2 33.3 24.1 33.4 24.1 33.6 24.1 33.5 24.1 33.5 24.1 33.6 24.1 33.6 24.1 33.6 24.1 33.6zM23.5 32.6C23.5 32.6 23.5 32.6 23.5 32.6 23.5 32.6 23.5 32.6 23.5 32.6c-0.1 0.2-0.1 0.3 0 0.4 0.1 0.1 0.3 0.2 0.3 0.2 0.1 0 0.2 0.1 0.3 0.2 0-0.1 0.2-0.3 0.3-0.5 0-0.1 0.1-0.1 0-0.2 0-0.1-0.1-0.2-0.2-0.2 0 0 0 0 0 0 0 0 0 0 0 0 0.3 0 0.3-0.2 0.3-0.3 0-0.1 0-0.3 0.1-0.5 0 0 0 0-0.1 0 -0.1 0-0.2 0-0.3-0.1 -0.1 0-0.2-0.1-0.2-0.1 -0.2 0-0.3 0.2-0.3 0.3 0 0 0 0 0 0 0 0 0 0 0 0 -0.1-0.1-0.2-0.2-0.3-0.2 -0.2 0-0.3 0.1-0.3 0.1 0 0.1-0.2 0.2-0.4 0.3 0.1 0.1 0.3 0.3 0.4 0.4l0 0c0.1 0.1 0.2 0.1 0.3 0.1C23.4 32.6 23.4 32.6 23.5 32.6 23.5 32.6 23.5 32.6 23.5 32.6z"/><path fill="#D18A00" d="M23.5 32.2c-0.1 0-0.3 0-0.3 0C23.4 32.1 23.5 32.1 23.5 32.2L23.5 32.2z"/><path fill="#D18A00" d="M24.1 32.1C24 32.1 24 32.1 24.1 32.1l-0.1 0c0.1 0 0.2-0.1 0.2-0.1C24.2 32 24.1 32.1 24.1 32.1"/><path fill="#D18A00" d="M23.9 32.9c-0.1-0.1-0.1-0.2-0.1-0.2l0 0C23.8 32.7 23.9 32.9 23.9 32.9"/><path fill="#F5BD47" d="M23.5 32.1c0 0-0.2 0.2 0.1 0.3 -0.1 0.1 0 0.3 0.2 0.3 0.1 0 0.2-0.2 0.1-0.3 0.1 0 0.2-0.2 0.1-0.3 -0.1-0.1-0.2 0-0.3 0C23.7 32.1 23.6 32.1 23.5 32.1"/><path fill="#D18A00" d="M23.7 32.4c0 0.1 0.1 0.1 0.2 0 0.1 0 0.1-0.1 0-0.2 0-0.1-0.1-0.1-0.2 0C23.7 32.3 23.7 32.4 23.7 32.4"/><path fill="#FFFFFF" d="M25.1 31.7c0 0 0.2 0.1 0.3 0 0 0 0.3 0.1 0.2 0.3 0.1 0 0.2-0.1 0.3 0 0.1 0.1 0 0.3 0.2 0.3 -0.1 0-0.2 0.1-0.3 0.1 -0.1 0.1-0.2 0.1-0.3 0 0 0 0 0.2-0.1 0.3 -0.1 0-0.3 0-0.3 0.1 0 0 0-0.2 0-0.2 0 0-0.1-0.3 0.2-0.4 -0.1 0-0.2-0.1-0.1-0.3C25.1 31.9 25.2 31.8 25.1 31.7"/><path fill="#F5BD47" d="M25.1 32.9C25.1 32.9 25.1 32.9 25.1 32.9 25.1 32.9 25.1 32.9 25.1 32.9c0-0.1 0-0.2 0-0.2 0 0-0.1-0.1 0-0.3 0-0.1 0.1-0.1 0.2-0.1 0 0-0.1-0.1-0.1-0.1 0-0.1 0-0.1 0-0.2l0 0c0-0.1 0.1-0.3 0-0.3 0 0 0 0 0 0 0 0 0 0 0 0 0 0 0.2 0 0.3 0 0 0 0 0 0 0 0 0 0.2 0 0.2 0.1 0 0.1 0.1 0.1 0 0.2 0 0 0.1 0 0.1 0 0.1 0 0.1 0 0.1 0.1 0 0 0.1 0.1 0.1 0.1 0 0.1 0 0.1 0.1 0.2 0 0 0 0 0 0 0 0 0 0 0 0 -0.1 0-0.2 0.1-0.3 0.1 0 0-0.1 0.1-0.1 0.1 0 0-0.1 0-0.1 0 0 0 0 0.1 0 0.1 0 0.1-0.1 0.1-0.1 0.1C25.3 32.8 25.2 32.8 25.1 32.9 25.1 32.9 25.1 32.9 25.1 32.9zM25.2 31.7c0 0.1 0 0.2 0 0.3l0 0c0 0 0 0.1 0 0.1 0 0.1 0.1 0.1 0.1 0.1 0 0 0 0 0 0 0 0 0 0 0 0 -0.1 0-0.2 0.1-0.2 0.1 0 0.1 0 0.2 0 0.2 0 0 0 0.1 0 0.2 0.1 0 0.2-0.1 0.3-0.1 0 0 0.1 0 0.1-0.1 0-0.1 0-0.1 0-0.2 0 0 0 0 0 0 0 0 0 0 0 0 0 0 0.1 0.1 0.1 0.1 0.1 0 0.1 0 0.1-0.1 0 0 0.1-0.1 0.2-0.1 -0.1 0-0.1-0.1-0.1-0.2 0 0 0-0.1-0.1-0.1 0 0-0.1-0.1-0.1-0.1 -0.1 0-0.1 0-0.1 0 0 0 0 0 0 0 0 0 0 0 0 0 0-0.1 0-0.1 0-0.2 -0.1-0.1-0.2-0.1-0.2-0.1 0 0 0 0 0 0C25.3 31.8 25.2 31.7 25.2 31.7z"/><path fill="#D18A00" d="M25.5 32.1c0-0.1-0.1-0.1-0.1-0.1C25.4 32 25.5 32.1 25.5 32.1L25.5 32.1z"/><path fill="#D18A00" d="M25.7 32.3C25.7 32.3 25.7 32.3 25.7 32.3L25.7 32.3c0 0 0.1 0 0.1 0C25.8 32.3 25.7 32.3 25.7 32.3"/><path fill="#D18A00" d="M25.3 32.6c0-0.1 0-0.1 0-0.1l0 0C25.3 32.5 25.3 32.6 25.3 32.6"/><path fill="#F5BD47" d="M25.5 32.1c0 0-0.2 0-0.1 0.2 -0.1 0-0.1 0.1 0 0.2 0 0 0.2 0 0.2-0.1 0.1 0 0.2 0 0.2-0.1C25.7 32.2 25.6 32.2 25.5 32.1 25.6 32.1 25.5 32.1 25.5 32.1"/><path fill="#FFFFFF" d="M22.9 34.4c0.1 0 0.2-0.4 0.2-0.4 0-0.1 0.3-0.5 0.6-0.2 0-0.1-0.1-0.3 0.1-0.4 0.2-0.1 0.4 0 0.6-0.2 -0.1 0.1 0.1 0.4 0.1 0.5 0.1 0.1 0 0.3-0.2 0.4 0.1 0 0.4 0.1 0.4 0.4 0 0.2-0.1 0.5 0 0.6 -0.1 0-0.3-0.1-0.4 0 -0.1 0-0.6 0.1-0.5-0.4 0 0.1-0.3 0.2-0.5 0.1C23.3 34.5 23 34.3 22.9 34.4"/><path fill="#F5BD47" d="M24.8 34.9C24.8 34.9 24.8 34.9 24.8 34.9c-0.1 0-0.2-0.1-0.3-0.1 0 0-0.1 0-0.1 0 0 0-0.1 0-0.2 0 -0.1 0-0.2 0-0.3-0.1 -0.1-0.1-0.1-0.1-0.1-0.3 -0.1 0.1-0.2 0.1-0.3 0.1 -0.1 0-0.1 0-0.1 0l0 0c-0.1-0.1-0.3-0.2-0.5-0.2 0 0 0 0 0 0 0 0 0 0 0 0 0 0 0 0 0 0 0 0 0.2-0.3 0.2-0.4 0-0.1 0.2-0.3 0.4-0.3 0.1 0 0.1 0 0.2 0 0-0.1 0-0.3 0.2-0.4 0.1 0 0.2-0.1 0.3-0.1 0.1 0 0.2 0 0.3-0.1 0 0 0 0 0 0 0 0 0 0 0 0 0 0.1 0 0.3 0.1 0.4l0 0c0 0.1 0.1 0.3-0.1 0.4 0.1 0 0.2 0.1 0.3 0.1 0.1 0.1 0.1 0.1 0.1 0.2C24.8 34.5 24.8 34.8 24.8 34.9 24.9 34.9 24.9 34.9 24.8 34.9 24.9 34.9 24.8 34.9 24.8 34.9zM23.9 34.4C23.9 34.4 23.9 34.4 23.9 34.4 23.9 34.4 23.9 34.4 23.9 34.4c0 0.2 0 0.3 0.1 0.3 0.1 0.1 0.2 0.1 0.3 0.1 0.1 0 0.1 0 0.1 0 0 0 0.1 0 0.1 0 0.1 0 0.2 0 0.2 0 0-0.1 0-0.3 0-0.5 0-0.1 0-0.1-0.1-0.2 -0.1-0.1-0.2-0.1-0.3-0.1 0 0 0 0 0 0 0 0 0 0 0 0 0.2-0.1 0.2-0.3 0.2-0.4l0 0c-0.1-0.1-0.1-0.3-0.1-0.4 -0.1 0.1-0.2 0.1-0.3 0.1 -0.1 0-0.2 0-0.2 0.1 -0.2 0.1-0.2 0.3-0.1 0.4 0 0 0 0 0 0 0 0 0 0 0 0 -0.1 0-0.1-0.1-0.2-0.1 -0.2 0-0.4 0.2-0.4 0.3 0 0.1-0.1 0.3-0.2 0.4 0.1 0 0.3 0.1 0.5 0.2l0 0c0 0 0.1 0 0.1 0C23.7 34.6 23.8 34.5 23.9 34.4 23.9 34.4 23.9 34.4 23.9 34.4z"/><path fill="#D18A00" d="M23.7 34c-0.1 0-0.3 0.1-0.3 0.1C23.6 34 23.7 34 23.7 34L23.7 34z"/><path fill="#D18A00" d="M24.2 33.8C24.2 33.8 24.1 33.8 24.2 33.8L24.2 33.8c0 0 0.1-0.2 0.1-0.2C24.2 33.6 24.2 33.7 24.2 33.8"/><path fill="#D18A00" d="M24.4 34.5c-0.1 0-0.2-0.1-0.2-0.1l0 0C24.3 34.4 24.4 34.5 24.4 34.5"/><path fill="#F5BD47" d="M23.7 34c0 0.1 0 0.3 0.2 0.2 0 0.1 0.2 0.3 0.3 0.2 0.1-0.1 0.1-0.3 0-0.3 0.1-0.1 0.1-0.3-0.1-0.3 -0.1-0.1-0.2 0.1-0.2 0.1C23.8 33.9 23.7 34 23.7 34"/><path fill="#D18A00" d="M24 34.1c0 0 0.1 0 0.1 0 0 0 0-0.1 0-0.1 0 0-0.1 0-0.1 0C23.9 34.1 23.9 34.1 24 34.1"/><path fill="#F5BD47" d="M27.9 31c0.4 0 0.7 0.2 0.8 0.4 0.3-0.1 0.5 0.1 0.5 0.2 0.3 0 0.5 0.3 0.4 0.4 0.2 0.1 0.3 0.4 0.3 0.5 0.3 0.1 0.4 0.4 0.3 0.6 0.2 0.1 0.2 0.4 0.2 0.6 0.2 0.1 0.1 0.5 0.1 0.7 0 0.5-2 0.7-2.6 0.7h-0.1c-0.6 0-2.5-0.2-2.6-0.7 0-0.2 0-0.6 0.1-0.7 0-0.2 0-0.5 0.2-0.6 0-0.1 0-0.5 0.3-0.6 0-0.1 0.1-0.3 0.3-0.4 0-0.1 0.1-0.5 0.4-0.4 0-0.1 0.1-0.3 0.5-0.2C27.3 31.2 27.5 31 27.9 31"/><path fill="#F5BD47" d="M28.6 31.3c-0.1 0.1-0.4 0.1-0.7 0.1 -0.1 0-0.5-0.1-0.6-0.1 0-0.2 0.3-0.3 0.6-0.3C28.2 31.1 28.4 31.2 28.6 31.3"/><path fill="#F5BD47" d="M27.9 31.9c-0.2 0-1.1-0.1-1.1-0.3 0-0.1 0.1-0.2 0.3-0.2 0.2 0.1 0.5 0.2 0.8 0.2 0.4 0 0.6-0.1 0.7-0.1 0.1-0.1 0.3-0.1 0.3 0 0.1 0 0.1 0.1 0.1 0.1C29.1 31.6 28.7 31.9 27.9 31.9"/><path fill="#F5BD47" d="M27.9 32c-0.3 0-0.9-0.1-1.2-0.3 0 0-0.2-0.1-0.3 0 0 0-0.1 0.1-0.1 0.2 0.1 0.2 0.9 0.5 1.5 0.5 0.3 0 1.2-0.1 1.6-0.4 0.1-0.1 0-0.2 0-0.2 0 0-0.2-0.2-0.3-0.1C29.1 31.7 28.8 32 27.9 32"/><path fill="#F5BD47" d="M27.9 32.5c-0.3 0-0.9-0.1-1.5-0.4 -0.1 0-0.1-0.1-0.2 0 0 0.1-0.2 0.2-0.1 0.3 0.1 0.2 1.1 0.5 1.8 0.5 0.7 0 1.6-0.2 1.9-0.6 0-0.1-0.1-0.2-0.1-0.3 -0.1-0.1-0.1-0.1-0.2 0C29.4 32.2 28.9 32.5 27.9 32.5"/><path fill="#F5BD47" d="M27.9 33c-0.5 0-1.3-0.2-1.8-0.5 -0.1-0.1-0.2-0.1-0.3 0 -0.1 0.1-0.2 0.3 0 0.5 0.2 0.1 0.7 0.5 2.1 0.5 0.8 0 2.1-0.3 2.2-0.7 0-0.1-0.1-0.3-0.2-0.3 0 0-0.1 0-0.1 0C29.1 32.9 28.7 33 27.9 33"/><path fill="#F5BD47" d="M27.9 33.7c-0.9 0-1.8-0.2-2.2-0.6 0 0-0.1 0-0.1 0.1 0 0.1-0.1 0.2 0 0.4 0 0.1 0.7 0.6 2.3 0.7 0.6 0 2.1-0.2 2.4-0.7 0.1-0.2-0.1-0.4-0.1-0.5 0-0.1-0.1 0-0.1 0C30.1 33.2 29.4 33.6 27.9 33.7"/><path fill="#F5BD47" d="M27.9 34.3c-0.7 0-1.7-0.1-2.3-0.6 -0.1 0-0.1-0.1-0.2 0 0 0-0.1 0.3 0 0.5 0 0.1 0.2 0.3 0.3 0.3 0.1 0.1 1.2 0.4 2 0.4 0-0.1 0-0.3 0-0.3S27.7 34.4 27.9 34.3c0.2 0 0.2 0.1 0.3 0.2 0 0.1 0 0.3 0 0.3 0.3 0 1.8-0.2 2.2-0.6 0.1-0.1 0.1-0.3 0.1-0.3 0 0 0-0.2 0-0.3 0 0-0.1-0.1-0.1 0C29.7 34.1 29.1 34.2 27.9 34.3"/><path fill="#FFFFFF" d="M28.8 34.2c0.5-0.1 1.2-0.3 1.5-0.5 0 0 0.1 0.1 0.1 0.2 0 0.2 0 0.3-0.1 0.3 0 0 0-0.2-0.1-0.2 -0.2 0-0.5 0.1-0.9 0.1C29.1 34.3 28.8 34.2 28.8 34.2z"/><path fill="#231F20" d="M27.8 31.1c0 0-0.2 0.1-0.2 0.3 -0.1 0-0.3 0-0.3 0C27.4 31.3 27.4 31.2 27.8 31.1"/><path fill="#FFFFFF" d="M28 31.1c0 0 0.2 0.1 0.2 0.3 0.1 0 0.3 0 0.3 0C28.5 31.3 28.4 31.2 28 31.1"/><path fill="#231F20" d="M27.6 31.8c-0.2-0.1-0.4-0.2-0.5-0.2 0-0.1-0.2 0-0.2 0.1C26.9 31.6 27.4 31.8 27.6 31.8L27.6 31.8z"/><path fill="#FFFFFF" d="M28.2 31.6c0.1 0 0.3-0.1 0.5-0.1 0.1 0 0.2 0 0.2 0 0 0-0.1-0.1-0.2-0.1 -0.1 0-0.2 0-0.3 0.1C28.5 31.6 28.3 31.6 28.2 31.6"/><path fill="#FFFFFF" d="M28.4 32.5c0.3-0.1 1-0.2 1.1-0.3 0 0 0.1-0.1 0.1 0 0 0 0.1 0.2 0 0.3 0 0-0.1-0.1-0.2-0.1 -0.1 0-0.3 0.1-0.6 0.1C28.6 32.5 28.4 32.5 28.4 32.5z"/><path fill="#FFFFFF" d="M28.4 32c0.2-0.1 0.8-0.2 0.9-0.3 0 0 0.1-0.1 0.1 0 0 0 0.1 0.2 0 0.3 0 0-0.1-0.1-0.2-0.1 -0.1 0-0.2 0.1-0.4 0.1C28.5 32 28.4 32 28.4 32z"/><path fill="#FFFFFF" d="M28.5 33.1c0.5-0.1 1.2-0.3 1.3-0.4 0 0 0.1-0.1 0.1 0 0 0 0.1 0.2 0 0.3 0 0-0.1-0.1-0.2-0.1 -0.2 0-0.4 0.1-0.7 0.2C28.8 33.1 28.5 33.1 28.5 33.1z"/><path fill="#231F20" d="M27.8 33.4c-1.4 0-1.7-0.5-1.9-0.5 0 0-0.1 0-0.1-0.1 0-0.1 0-0.2 0.2-0.2 0 0 0 0.1 0.1 0.2 0.1 0.1 0.2 0.2 0.5 0.3C27 33.3 27.8 33.4 27.8 33.4z"/><path fill="#231F20" d="M27.8 32.8c-0.1 0-0.5 0-0.8-0.1 -0.3-0.1-0.7-0.3-0.8-0.3 0 0-0.1 0-0.1 0 0-0.1 0-0.2 0.2-0.2 0 0.1 0 0.2 0.1 0.2 0.1 0.1 0.3 0.2 0.6 0.3C27.4 32.7 27.8 32.8 27.8 32.8z"/><path fill="#FFFFFF" d="M28.6 33.7c0.7-0.2 1.3-0.3 1.4-0.4 0 0 0.1-0.1 0.1 0 0 0.1 0.1 0.2 0 0.3 0-0.1-0.1-0.1-0.2-0.1 -0.1 0-0.3 0.1-0.8 0.2C28.9 33.7 28.6 33.7 28.6 33.7z"/><path fill="#231F20" d="M27.7 32.2c-0.4 0.1-1.1-0.3-1.2-0.3 0 0-0.1 0-0.1-0.1 0-0.1 0-0.2 0.2-0.2 0 0 0 0.1 0.1 0.2 0.1 0.1 0.3 0.1 0.5 0.2C27.3 32.1 27.7 32.2 27.7 32.2z"/><path fill="#231F20" d="M25.7 33.5C25.7 33.5 25.6 33.5 25.7 33.5c-0.1-0.1-0.1-0.2 0-0.2 0 0 0.2 0.2 0.2 0.2 0.1 0 0.5 0.2 0.8 0.3 0.4 0.1 0.9 0.2 1 0.2C26.5 34.1 25.7 33.5 25.7 33.5"/><path fill="#231F20" d="M25.6 33.8c0 0.1-0.1 0.4 0 0.4 0.1 0.1 0.4 0.2 1 0.4 0.6 0.1 1.2 0.1 1.2 0.1s-0.9-0.1-1.3-0.3c-0.3-0.1-0.8-0.3-0.9-0.5C25.6 33.9 25.6 33.8 25.6 33.8"/><path fill="#FFFFFF" d="M25.9 38.3c-0.1 0.1-0.3 0.1-0.5 0.1 -0.2 0-0.4 0-0.5-0.1 -0.1-0.1-0.2-0.3-0.2-0.5v-0.9h0.3v0.9c0 0 0 0.1 0 0.1 0 0 0 0.1 0 0.1 0 0 0.1 0.1 0.1 0.1 0 0 0.1 0 0.2 0 0.1 0 0.2 0 0.3-0.1 0-0.1 0.1-0.1 0.1-0.2v-0.9h0.3v0.9C26.1 38.1 26 38.2 25.9 38.3"/><polygon fill="#FFFFFF" points="26.3 37.2 26.3 36.9 27.6 36.9 27.6 37.2 27.1 37.2 27.1 38.4 26.7 38.4 26.7 37.2 "/><path fill="#FFFFFF" d="M28.5 36.9l0.6 1.5h-0.4l-0.1-0.3h-0.6l-0.1 0.3h-0.4l0.6-1.5H28.5zM28.6 37.9l-0.2-0.6h0l-0.2 0.6H28.6z"/><polygon fill="#FFFFFF" points="29.6 36.9 29.6 37.5 30.3 37.5 30.3 36.9 30.6 36.9 30.6 38.4 30.3 38.4 30.3 37.8 29.6 37.8 29.6 38.4 29.3 38.4 29.3 36.9 "/><path fill="#FFFFFF" d="M26.9 39.4v-0.5h-0.2v-0.1c0 0 0.1 0 0.1 0 0 0 0 0 0.1 0 0 0 0 0 0.1 0 0 0 0 0 0-0.1h0.1v0.8H26.9z"/><path fill="#FFFFFF" d="M27.3 38.8C27.3 38.7 27.4 38.7 27.3 38.8c0.1-0.1 0.1-0.1 0.1-0.1 0 0 0.1 0 0.1 0 0 0 0.1 0 0.1 0 0 0 0.1 0 0.1 0.1 0 0 0 0 0 0.1 0 0 0 0 0 0.1 0 0 0 0.1 0 0.1 0 0 0 0-0.1 0.1v0c0 0 0.1 0 0.1 0.1 0 0 0 0.1 0 0.1 0 0 0 0.1 0 0.1 0 0 0 0.1-0.1 0.1 0 0-0.1 0-0.1 0 0 0-0.1 0-0.1 0 0 0-0.1 0-0.1 0 0 0-0.1 0-0.1 0 0 0-0.1 0-0.1-0.1 0 0 0-0.1 0-0.1 0 0 0-0.1 0-0.1 0 0 0.1-0.1 0.1-0.1v0c0 0-0.1 0-0.1-0.1C27.3 38.9 27.3 38.9 27.3 38.8 27.3 38.8 27.3 38.8 27.3 38.8M27.4 39.3C27.4 39.3 27.4 39.3 27.4 39.3 27.5 39.3 27.5 39.3 27.4 39.3c0.1 0.1 0.1 0.1 0.1 0.1 0 0 0 0 0.1 0 0 0 0 0 0 0 0 0 0 0 0 0 0 0 0 0 0-0.1 0 0 0 0 0-0.1 0 0 0 0 0 0 0 0 0 0 0 0 0 0 0 0-0.1 0 0 0-0.1 0-0.1 0C27.4 39.1 27.4 39.2 27.4 39.3 27.4 39.2 27.4 39.2 27.4 39.3M27.5 38.9C27.5 39 27.5 39 27.5 38.9c0.1 0 0.1 0 0.2 0 0 0 0 0 0-0.1 0 0 0 0 0 0 0 0 0 0 0 0 0 0 0 0 0 0 0 0 0 0-0.1 0 0 0 0 0 0 0 0 0 0 0 0 0 0 0 0 0 0 0C27.4 38.8 27.4 38.8 27.5 38.9 27.4 38.9 27.5 38.9 27.5 38.9"/><path fill="#FFFFFF" d="M27.9 39.3v-0.1l0.3-0.5h0.1v0.5h0.1v0.1h-0.1v0.2h-0.2v-0.2H27.9zM28.2 38.8L28 39.1h0.2L28.2 38.8 28.2 38.8z"/><path fill="#FFFFFF" d="M29 38.9c0 0.1-0.1 0.1-0.1 0.2 0 0.1 0 0.1 0 0.2 0 0.1 0 0.1 0 0.2h-0.2c0-0.1 0-0.2 0.1-0.3 0-0.1 0.1-0.2 0.2-0.3h-0.4v-0.1h0.5v0.1C29 38.8 29 38.9 29 38.9"/><rect x="23.2" y="30.5" transform="matrix(-0.3756 -0.9268 0.9268 -0.3756 4.4263 64.229)" fill="#FFFFFF" width="1.2" height="0.3"/><polygon fill="#FFFFFF" points="24.2 29.8 24.9 30.5 24.9 30.5 24.7 29.7 24.9 29.6 25.3 30.8 25 30.9 24.3 30.2 24.3 30.2 24.6 31 24.3 31.1 24 29.9 "/><path fill="#FFFFFF" d="M25.7 29.5c0.1 0 0.1 0 0.2 0 0.1 0 0.1 0 0.2 0.1 0.1 0 0.1 0.1 0.1 0.2 0 0.1 0.1 0.2 0.1 0.3 0 0.1 0 0.2 0 0.3 0 0.1 0 0.1-0.1 0.2 0 0.1-0.1 0.1-0.1 0.2s-0.1 0.1-0.2 0.1l-0.5 0.1 -0.2-1.2L25.7 29.5zM25.9 30.5c0 0 0.1 0 0.1 0 0 0 0.1 0 0.1-0.1 0 0 0-0.1 0-0.1 0 0 0-0.1 0-0.2 0-0.1 0-0.1 0-0.2 0 0 0-0.1-0.1-0.1 0 0-0.1-0.1-0.1-0.1 0 0-0.1 0-0.2 0l-0.2 0 0.1 0.8L25.9 30.5z"/><path fill="#FFFFFF" d="M27.4 30.5c-0.1 0.1-0.2 0.1-0.4 0.1 -0.2 0-0.3 0-0.4-0.1 -0.1-0.1-0.1-0.2-0.1-0.4l0-0.8 0.3 0 0 0.8c0 0 0 0.1 0 0.1 0 0 0 0.1 0 0.1 0 0 0 0 0.1 0.1 0 0 0.1 0 0.1 0 0.1 0 0.2 0 0.2-0.1 0 0 0-0.1 0-0.2l0-0.8 0.3 0 0 0.8C27.6 30.3 27.5 30.4 27.4 30.5"/><path fill="#FFFFFF" d="M27.9 30.3C27.9 30.3 28 30.3 27.9 30.3c0.1 0.1 0.1 0.1 0.1 0.1 0 0 0.1 0 0.1 0 0 0 0 0 0.1 0 0 0 0.1 0 0.1 0 0 0 0 0 0.1 0 0 0 0 0 0-0.1 0 0 0-0.1 0-0.1 0 0 0 0-0.1-0.1 0 0-0.1 0-0.1 0 0 0-0.1 0-0.1 0 0 0-0.1 0-0.1 0 0 0-0.1 0-0.1-0.1 0 0-0.1-0.1-0.1-0.1 0 0 0-0.1 0-0.1 0-0.1 0-0.1 0-0.2 0 0 0.1-0.1 0.1-0.1 0 0 0.1-0.1 0.1-0.1 0.1 0 0.1 0 0.2 0 0.1 0 0.1 0 0.2 0 0.1 0 0.1 0 0.1 0.1 0 0 0.1 0.1 0.1 0.1 0 0.1 0 0.1 0 0.2l-0.3 0c0 0 0-0.1 0-0.1 0 0 0 0 0-0.1 0 0 0 0-0.1 0 0 0-0.1 0-0.1 0 0 0 0 0-0.1 0 0 0 0 0-0.1 0 0 0 0 0 0 0 0 0 0 0 0 0.1 0 0 0 0 0 0.1 0 0 0 0 0.1 0 0 0 0.1 0 0.1 0 0 0 0.1 0 0.2 0.1 0 0 0.1 0 0.1 0 0 0 0.1 0 0.1 0.1 0 0 0.1 0.1 0.1 0.1 0 0 0 0.1 0 0.2 0 0.1 0 0.1 0 0.2 0 0-0.1 0.1-0.1 0.1 0 0-0.1 0.1-0.2 0.1 -0.1 0-0.1 0-0.2 0 -0.1 0-0.1 0-0.2 0 -0.1 0-0.1 0-0.2-0.1 0 0-0.1-0.1-0.1-0.1 0-0.1 0-0.1 0-0.2l0.3 0C27.9 30.2 27.9 30.2 27.9 30.3"/><polygon fill="#FFFFFF" points="28.7 29.6 28.8 29.4 29.7 29.5 29.7 29.7 29.4 29.7 29.2 30.7 29 30.6 29.1 29.6 "/><path fill="#FFFFFF" d="M30.7 31l-0.3-0.1c0 0-0.1-0.5-0.2-0.5 -0.1-0.1-0.2-0.1-0.2-0.1l-0.1 0.5 -0.3-0.1 0.3-1.2 0.6 0.2c0.1 0 0.1 0 0.1 0.1 0 0 0.1 0.1 0.1 0.1 0 0 0 0.1 0 0.1 0 0 0 0.1 0 0.1 0 0.1 0 0.1-0.1 0.2 0 0-0.1 0.1-0.2 0.1l0 0L30.7 31zM30.3 30.2c0.1 0 0.1 0 0.1 0 0 0 0.1-0.1 0.1-0.1 0-0.1 0-0.1 0-0.1 0 0-0.1-0.1-0.1-0.1l-0.3-0.1L30 30.1 30.3 30.2z"/><polygon fill="#FFFFFF" points="31.2 29.8 31.4 30 31.5 30.5 31.9 30.2 32.2 30.3 31.4 30.8 31.2 31.2 31 31.1 31.2 30.7 "/><path fill="#FFFFFF" d="M25.6 45.5l-0.3-0.1 0.3-1.1 -0.4 0.1 0.1-0.3c0.2 0 0.5-0.1 0.5-0.3l0.3 0.1L25.6 45.5z"/><path fill="#FFFFFF" d="M28.3 45.3c0 0.1 0.1 0.2 0.2 0.2 0.2 0 0.3-0.3 0.3-0.5l0 0c-0.1 0.1-0.2 0.2-0.4 0.2 -0.1 0-0.3-0.1-0.4-0.2 -0.1-0.1-0.1-0.2-0.1-0.4 0-0.3 0.2-0.6 0.5-0.6 0.5 0 0.6 0.4 0.7 0.8 0 0.4-0.1 0.9-0.6 0.9 -0.3 0-0.5-0.1-0.5-0.4L28.3 45.3zM28.7 44.6c0-0.2-0.1-0.3-0.3-0.3 -0.2 0-0.2 0.2-0.2 0.3 0 0.2 0.1 0.3 0.3 0.3C28.6 44.9 28.7 44.8 28.7 44.6"/><path fill="#FFFFFF" d="M27.1 44c0.4 0 0.5 0.3 0.5 0.5 0 0.2-0.1 0.3-0.2 0.4v0c0.2 0 0.3 0.2 0.3 0.4 0 0.4-0.3 0.5-0.6 0.5 -0.3 0-0.6-0.2-0.6-0.5 0-0.2 0.1-0.4 0.3-0.4v0c-0.2 0-0.2-0.2-0.2-0.3C26.6 44.2 26.8 44 27.1 44M27.1 45.5c0.2 0 0.3-0.1 0.3-0.3 0-0.2-0.1-0.3-0.3-0.3 -0.2 0-0.3 0.1-0.3 0.3C26.8 45.4 26.9 45.5 27.1 45.5M27.1 44.7c0.1 0 0.2-0.1 0.2-0.2 0-0.1 0-0.2-0.2-0.2 -0.1 0-0.2 0.1-0.2 0.2C26.9 44.7 27 44.7 27.1 44.7"/><path fill="#FFFFFF" d="M30.1 44.2c0-0.1-0.1-0.2-0.3-0.2 -0.2 0.1-0.2 0.4-0.2 0.6l0 0c0.1-0.1 0.2-0.2 0.3-0.3 0.1 0 0.3 0 0.4 0.1 0.1 0.1 0.2 0.2 0.2 0.3 0.1 0.3-0.1 0.7-0.4 0.7 -0.5 0.1-0.7-0.3-0.8-0.7 -0.1-0.4 0-0.9 0.4-1 0.3-0.1 0.5 0.1 0.6 0.3L30.1 44.2zM29.8 45c0 0.2 0.2 0.3 0.3 0.2 0.2 0 0.2-0.2 0.2-0.4 0-0.2-0.1-0.3-0.3-0.3C29.8 44.7 29.7 44.8 29.8 45"/><path fill="#231F20" d="M28.3 34.4c0-0.2-0.2-0.4-0.4-0.4 -0.2 0-0.4 0.2-0.4 0.4 0 0 0 0 0 0l0 0V35c0 0 0.2 0 0.4 0 0.2 0 0.4 0 0.4 0L28.3 34.4 28.3 34.4C28.3 34.4 28.3 34.4 28.3 34.4z"/><path fill="#231F20" d="M22.8 38.6c-0.3-0.2-1-0.7-1.4-1.4 0 0 0 0 0 0 -0.1-0.2-0.2-0.6-0.2-1.4 0-0.8 0.1-1.1 0.2-1.3 0 0 0-0.1 0-0.1 0-0.1 0.1-0.4 0.2-0.6 0.1-0.2 0.1-0.5 0.2-0.5 0-0.1 0.2-1.2 0.2-1.8 0-1-0.4-1.7-1.1-2.2l0 0 0.1-0.2 0 0c-0.8-0.5-1.3-0.9-1.6-1.7l-0.7-0.6 0 0c0 0.7-0.1 1.5-0.2 2 -0.1 0.9-0.9 3.1-1.1 3.9 -0.1 0.3-0.3 1-0.4 1.6l0 0.1c0 0.8-0.1 1.8 0.5 3 0.6 1.1 1.2 1.8 2.2 2.4 0.4 0.2 1.3 0.6 1.6 0.7l0 0L22.8 38.6 22.8 38.6z"/><path fill="#FFFFFF" d="M21.1 40.1c-0.4-0.2-1.9-1-2.7-2.5 -0.6-1.1-0.6-2.1-0.5-3 0-0.1 0.1-0.6 0.1-0.6l0.6 0.4c0 0.3-0.1 1 0.1 1.8 0.3 1.2 1 2.3 2.7 3.1 -1.2-0.9-1.6-1.8-1.7-2.3 -0.2-0.8-0.1-1.8 0-2l0.7 0.4c0 1.1 0.2 1.6 0.5 2.1 0.4 0.6 1.1 1.3 1.5 1.4L21.1 40.1z"/><path fill="#231F20" d="M38.5 37.3c0.5-1.2 0.5-2.2 0.5-3l0-0.1c0-0.5-0.2-1.3-0.4-1.6 -0.3-0.8-1-3-1.2-3.9 -0.1-0.4-0.2-1.3-0.2-2.1l0 0 -0.3 0 -0.3 0.2c-0.2 0.9-0.8 1.6-1.7 2.2l0 0 0.1 0.2 0 0c-0.7 0.5-1.1 1.2-1.1 2.2 0 0.6 0.1 1.7 0.2 1.8 0 0.1 0.1 0.3 0.2 0.5l0 0c0.1 0.3 0.2 0.5 0.2 0.6 0 0 0 0.1 0 0.1 0.1 0.2 0.2 0.6 0.2 1.3 0 0.8-0.2 1.3-0.2 1.4l0 0c0 0 0 0 0 0 -0.4 0.8-1.1 1.2-1.4 1.4l0 0 1.7 1.7 0 0c0.3-0.1 1.2-0.5 1.6-0.7C37.2 39.1 37.9 38.3 38.5 37.3z"/><path fill="#FFFFFF" d="M37.9 34.6c0-0.1-0.1-0.5-0.1-0.6l-0.5 0.3c0 0 0 0 0 0 0 0 0 0.1 0 0.1 0 0.3 0.1 1-0.1 1.7 -0.3 1.4-1.2 2.4-2.7 3.1 0 0 0 0 0 0 0 0 0 0-0.1 0 0 0 0-0.1 0-0.1 1.2-0.9 1.6-1.9 1.7-2.2 0.2-0.8 0.1-1.7 0-2l-0.6 0.4c0.1 1.2-0.2 1.6-0.5 2.1 -0.4 0.6-1.1 1.2-1.5 1.4l1.1 1.2c0.3-0.2 1.9-1 2.6-2.4C37.9 36.6 38 35.6 37.9 34.6z"/><polygon fill="#D18A00" points="32.8 38.9 31.9 39.3 35.9 43.2 36.3 42.3 "/><polygon fill="#F5BD47" points="36 42.9 36.2 42.4 32.7 39 32.2 39.2 "/><polygon fill="#FFFFFF" points="19 28.4 19.3 28.4 19.1 28.5 19.2 28.7 19 28.6 18.8 28.7 18.8 28.5 18.7 28.4 18.9 28.4 19 28.2 "/><polygon fill="#FFFFFF" points="18.8 29.3 19 29.3 18.9 29.5 18.9 29.7 18.7 29.6 18.6 29.7 18.6 29.5 18.5 29.3 18.7 29.3 18.7 29.1 "/><polygon fill="#FFFFFF" points="19.7 29.4 20 29.4 19.8 29.5 19.9 29.7 19.7 29.6 19.5 29.7 19.5 29.5 19.4 29.4 19.6 29.4 19.7 29.1 "/><polygon fill="#FFFFFF" points="20.1 34.1 20.3 34.1 20.1 34.2 20.2 34.4 20 34.3 19.8 34.4 19.9 34.2 19.7 34.1 19.9 34.1 20 33.9 "/><polygon fill="#FFFFFF" points="21 34.1 21.2 34.1 21 34.2 21.1 34.5 20.9 34.3 20.7 34.5 20.8 34.2 20.6 34.1 20.8 34.1 20.9 33.9 "/><polygon fill="#FFFFFF" points="18.5 30.3 18.7 30.3 18.6 30.4 18.6 30.6 18.5 30.5 18.3 30.6 18.3 30.4 18.2 30.3 18.4 30.3 18.5 30.1 "/><polygon fill="#FFFFFF" points="19.4 30.3 19.6 30.3 19.5 30.4 19.5 30.7 19.3 30.5 19.1 30.7 19.2 30.4 19 30.3 19.3 30.3 19.3 30.1 "/><polygon fill="#FFFFFF" points="20.3 30.3 20.5 30.3 20.4 30.5 20.4 30.7 20.2 30.6 20.1 30.7 20.1 30.5 20 30.3 20.2 30.3 20.2 30.1 "/><polygon fill="#FFFFFF" points="21.2 30.4 21.4 30.4 21.2 30.5 21.3 30.7 21.1 30.6 20.9 30.7 21 30.5 20.8 30.4 21 30.4 21.1 30.1 "/><polygon fill="#FFFFFF" points="18.3 31.2 18.5 31.2 18.3 31.3 18.4 31.6 18.2 31.4 18 31.6 18 31.3 17.9 31.2 18.1 31.2 18.2 31 "/><polygon fill="#FFFFFF" points="19.1 31.2 19.3 31.2 19.2 31.4 19.2 31.6 19.1 31.5 18.9 31.6 18.9 31.4 18.8 31.2 19 31.2 19.1 31 "/><polygon fill="#FFFFFF" points="20 31.3 20.2 31.3 20.1 31.4 20.1 31.6 19.9 31.5 19.8 31.6 19.8 31.4 19.7 31.3 19.9 31.3 19.9 31.1 "/><polygon fill="#FFFFFF" points="20.9 31.3 21.1 31.3 21 31.4 21 31.6 20.8 31.5 20.6 31.6 20.7 31.4 20.5 31.3 20.8 31.3 20.8 31.1 "/><polygon fill="#FFFFFF" points="18.9 32.2 19.1 32.2 18.9 32.3 19 32.5 18.8 32.4 18.6 32.5 18.7 32.3 18.5 32.2 18.7 32.2 18.8 31.9 "/><polygon fill="#FFFFFF" points="18 32.2 18.2 32.2 18.1 32.3 18.1 32.5 17.9 32.4 17.8 32.5 17.8 32.3 17.7 32.2 17.9 32.2 17.9 31.9 "/><polygon fill="#FFFFFF" points="19.7 32.1 19.9 32.1 19.8 32.3 19.8 32.5 19.6 32.4 19.5 32.5 19.5 32.3 19.4 32.1 19.6 32.1 19.6 31.9 "/><polygon fill="#FFFFFF" points="20.6 32.2 20.8 32.2 20.6 32.3 20.7 32.5 20.5 32.4 20.3 32.5 20.4 32.3 20.2 32.2 20.4 32.2 20.5 31.9 "/><polygon fill="#FFFFFF" points="21.4 32.2 21.6 32.2 21.5 32.3 21.5 32.5 21.3 32.4 21.2 32.5 21.2 32.3 21.1 32.2 21.3 32.2 21.3 31.9 "/><polygon fill="#FFFFFF" points="18.6 33.1 18.9 33.1 18.7 33.2 18.8 33.5 18.6 33.3 18.4 33.5 18.4 33.2 18.3 33.1 18.5 33.1 18.6 32.9 "/><polygon fill="#FFFFFF" points="17.8 33.1 18 33.1 17.8 33.2 17.9 33.5 17.7 33.3 17.5 33.5 17.6 33.2 17.4 33.1 17.6 33.1 17.7 32.9 "/><polygon fill="#FFFFFF" points="19.5 33.1 19.7 33.1 19.5 33.2 19.6 33.4 19.4 33.3 19.2 33.4 19.3 33.2 19.1 33.1 19.3 33.1 19.4 32.9 "/><polygon fill="#FFFFFF" points="20.4 33.1 20.6 33.1 20.4 33.3 20.5 33.5 20.3 33.3 20.1 33.5 20.1 33.3 20 33.1 20.2 33.1 20.3 32.9 "/><polygon fill="#FFFFFF" points="21.2 33.1 21.4 33.1 21.2 33.3 21.3 33.5 21.1 33.3 20.9 33.5 21 33.3 20.8 33.1 21 33.1 21.1 32.9 "/><polygon fill="#FFFFFF" points="36.9 28.2 37 28.4 37.2 28.4 37 28.5 37.1 28.7 36.9 28.6 36.7 28.7 36.8 28.5 36.6 28.4 36.8 28.4 "/><polygon fill="#FFFFFF" points="37.1 29.1 37.2 29.3 37.4 29.3 37.2 29.5 37.3 29.7 37.1 29.6 36.9 29.7 37 29.5 36.8 29.3 37 29.3 "/><polygon fill="#FFFFFF" points="36.2 29.1 36.3 29.4 36.5 29.4 36.3 29.5 36.4 29.7 36.2 29.6 36 29.7 36.1 29.5 35.9 29.4 36.1 29.4 "/><polygon fill="#FFFFFF" points="35.8 33.9 35.9 34.1 36.1 34.1 36 34.2 36 34.4 35.8 34.3 35.6 34.4 35.7 34.2 35.5 34.1 35.7 34.1 "/><polygon fill="#FFFFFF" points="34.9 33.9 35 34.1 35.2 34.1 35.1 34.2 35.1 34.5 34.9 34.3 34.8 34.5 34.8 34.2 34.7 34.1 34.9 34.1 "/><polygon fill="#FFFFFF" points="37.4 30.1 37.5 30.3 37.7 30.3 37.5 30.4 37.6 30.6 37.4 30.5 37.2 30.6 37.3 30.4 37.1 30.3 37.3 30.3 "/><polygon fill="#FFFFFF" points="36.5 30.1 36.6 30.3 36.8 30.3 36.6 30.4 36.7 30.7 36.5 30.5 36.3 30.7 36.4 30.4 36.2 30.3 36.4 30.3 "/><polygon fill="#FFFFFF" points="35.6 30.1 35.7 30.3 35.9 30.3 35.7 30.5 35.8 30.7 35.6 30.6 35.4 30.7 35.5 30.5 35.3 30.3 35.5 30.3 "/><polygon fill="#FFFFFF" points="34.7 30.1 34.8 30.4 35 30.4 34.9 30.5 34.9 30.7 34.7 30.6 34.5 30.7 34.6 30.5 34.4 30.4 34.6 30.4 "/><polygon fill="#FFFFFF" points="37.7 31 37.8 31.2 38 31.2 37.8 31.3 37.9 31.6 37.7 31.4 37.5 31.6 37.6 31.3 37.4 31.2 37.6 31.2 "/><polygon fill="#FFFFFF" points="36.8 31 36.9 31.2 37.1 31.2 36.9 31.4 37 31.6 36.8 31.5 36.6 31.6 36.7 31.4 36.5 31.2 36.7 31.2 "/><polygon fill="#FFFFFF" points="35.9 31.1 36 31.3 36.2 31.3 36 31.4 36.1 31.6 35.9 31.5 35.7 31.6 35.8 31.4 35.6 31.3 35.8 31.3 "/><polygon fill="#FFFFFF" points="35 31.1 35.1 31.3 35.3 31.3 35.1 31.4 35.2 31.6 35 31.5 34.8 31.6 34.9 31.4 34.7 31.3 34.9 31.3 "/><polygon fill="#FFFFFF" points="37.1 31.9 37.1 32.2 37.3 32.2 37.2 32.3 37.2 32.5 37.1 32.4 36.9 32.5 36.9 32.3 36.8 32.2 37 32.2 "/><polygon fill="#FFFFFF" points="37.9 31.9 38 32.2 38.2 32.2 38 32.3 38.1 32.5 37.9 32.4 37.7 32.5 37.8 32.3 37.6 32.2 37.8 32.2 "/><polygon fill="#FFFFFF" points="36.2 31.9 36.3 32.1 36.5 32.1 36.3 32.3 36.4 32.5 36.2 32.4 36 32.5 36.1 32.3 35.9 32.1 36.1 32.1 "/><polygon fill="#FFFFFF" points="35.3 31.9 35.4 32.2 35.6 32.2 35.5 32.3 35.5 32.5 35.3 32.4 35.2 32.5 35.2 32.3 35.1 32.2 35.3 32.2 "/><polygon fill="#FFFFFF" points="34.5 31.9 34.6 32.2 34.8 32.2 34.6 32.3 34.7 32.5 34.5 32.4 34.3 32.5 34.4 32.3 34.2 32.2 34.4 32.2 "/><polygon fill="#FFFFFF" points="37.3 32.9 37.4 33.1 37.6 33.1 37.4 33.2 37.5 33.5 37.3 33.3 37.1 33.5 37.2 33.2 37 33.1 37.2 33.1 "/><polygon fill="#FFFFFF" points="38.1 32.9 38.2 33.1 38.4 33.1 38.3 33.2 38.3 33.5 38.1 33.3 37.9 33.5 38 33.2 37.8 33.1 38 33.1 "/><polygon fill="#FFFFFF" points="36.4 32.9 36.5 33.1 36.7 33.1 36.6 33.2 36.6 33.4 36.4 33.3 36.2 33.4 36.3 33.2 36.1 33.1 36.3 33.1 "/><polygon fill="#FFFFFF" points="35.6 32.9 35.6 33.1 35.9 33.1 35.7 33.3 35.8 33.5 35.6 33.3 35.4 33.5 35.4 33.3 35.3 33.1 35.5 33.1 "/><polygon fill="#FFFFFF" points="34.7 32.9 34.8 33.1 35 33.1 34.8 33.3 34.9 33.5 34.7 33.3 34.5 33.5 34.6 33.3 34.4 33.1 34.6 33.1 "/><path fill="#D18A00" d="M38 26.6l1.3-2.3 -2.5 1.1c0 0.1 0 0.5-0.1 0.8 -0.1 0.2-2.1 2-2.1 2l0.3 0.6 1.9-1.9c0.1-0.1 0.2-0.1 0.3-0.1C37.1 26.7 37.5 26.6 38 26.6"/><path fill="#F5BD47" d="M34.6 28.3l2.1-1.9c0 0 0-0.2 0.1-0.2 0 0 0.1-0.2 0.1-0.2 0 0 0-0.2 0-0.3 0 0 0.5 0.5 0.6 0.7 -0.1 0-0.2 0-0.2 0 0 0-0.2 0.1-0.2 0.1 -0.1 0-0.1 0-0.1 0 -0.1 0-2.1 2-2.1 2L34.6 28.3z"/><polygon fill="#F5BD47" points="36.9 25.4 37.3 25.9 38.4 25.1 37.5 26.1 38 26.5 39.1 24.5 "/><path fill="#D18A00" d="M21.2 28.1l-0.3 0.6 -2.4-2.1c-0.1 0-0.5-0.1-0.8 0l-1.3-2.3 2.5 1.1c0 0.1 0 0.5 0.1 0.8C19.2 26.3 21.2 28.1 21.2 28.1"/><path fill="#F5BD47" d="M21.2 28.3l-2.1-1.9c0 0 0-0.2-0.1-0.2 0 0-0.1-0.2-0.1-0.2 0 0 0-0.2 0-0.3 0 0-0.5 0.5-0.6 0.7 0.1 0 0.2 0 0.2 0 0 0 0.2 0.1 0.2 0.1 0.1 0 0.1 0 0.1 0 0.1 0 2.1 2 2.1 2L21.2 28.3z"/><polygon fill="#F5BD47" points="18.9 25.4 18.5 25.9 17.4 25.1 18.3 26.1 17.8 26.5 16.7 24.5 "/></svg>